# Blender 4.4.3
# www.blender.org
mtllib Stage2LightBlock.mtl
o 立方体.003
v -2.000000 14.000002 11.899998
v -2.000000 16.000000 11.899998
v -2.000000 13.999998 -11.900002
v -2.000000 15.999998 -11.900002
v 2.000000 14.000002 11.899998
v 2.000000 16.000000 11.899998
v 2.000000 13.999998 -11.900002
v 2.000000 15.999998 -11.900002
vn -0.0000 1.0000 -0.0000
vn -1.0000 -0.0000 -0.0000
vn -0.0000 -0.0000 -1.0000
vn 1.0000 -0.0000 -0.0000
vn -0.0000 -0.0000 1.0000
vn -0.0000 -1.0000 -0.0000
vt 0.875000 0.500000
vt 0.625000 0.750000
vt 0.625000 0.500000
vt 0.625000 0.000000
vt 0.375000 0.250000
vt 0.375000 0.000000
vt 0.625000 0.250000
vt 0.375000 0.500000
vt 0.375000 0.750000
vt 0.375000 1.000000
vt 0.125000 0.750000
vt 0.125000 0.500000
vt 0.875000 0.750000
vt 0.625000 1.000000
s 1
usemtl マテリアル.002
f 2/4/2 3/5/2 1/6/2
f 4/7/3 7/8/3 3/5/3
f 8/3/4 5/9/4 7/8/4
f 6/2/5 1/10/5 5/9/5
f 7/8/6 1/11/6 3/12/6
f 2/4/2 4/7/2 3/5/2
f 4/7/3 8/3/3 7/8/3
f 8/3/4 6/2/4 5/9/4
f 6/2/5 2/14/5 1/10/5
f 7/8/6 5/9/6 1/11/6
usemtl マテリアル.005
f 4/1/1 6/2/1 8/3/1
f 4/1/1 2/13/1 6/2/1
