# Blender 4.4.3
# www.blender.org
mtllib Stage2.mtl
o 立方体.002
v -15.000000 -0.000002 -11.999975
v -15.000000 15.999998 -12.000027
v -15.000000 -0.000003 -15.000000
v -15.000000 15.999998 -15.000051
v 15.000000 -0.000002 -11.999975
v 15.000000 15.999998 -12.000027
v 15.000000 -0.000003 -15.000000
v 15.000000 15.999998 -15.000051
v -15.000000 0.000003 15.000000
v -15.000000 24.000006 14.999994
v -15.000000 -0.000003 -15.000000
v -15.000000 23.999994 -15.000006
v 15.000000 0.000003 15.000000
v 15.000000 24.000006 14.999994
v 15.000000 -0.000003 -15.000000
v 15.000000 23.999994 -15.000006
v -15.000000 0.000003 15.000000
v -15.000000 16.000004 14.999997
v -15.000000 0.000003 12.000000
v -15.000000 16.000000 11.999997
v 15.000000 0.000003 15.000000
v 15.000000 16.000004 14.999997
v 15.000000 0.000003 12.000000
v 15.000000 16.000000 11.999997
v 11.000000 0.000003 12.000000
v 11.000000 13.000002 11.999998
v 11.000000 0.000002 8.000000
v 11.000000 13.000001 7.999998
v 15.000000 0.000003 12.000000
v 15.000000 13.000002 11.999998
v 15.000000 0.000002 8.000000
v 15.000000 13.000001 7.999998
v 7.000000 0.000003 12.000000
v 7.000000 10.000002 11.999998
v 7.000000 0.000002 8.000000
v 7.000000 10.000002 7.999998
v 11.000000 0.000003 12.000000
v 11.000000 10.000002 11.999998
v 11.000000 0.000002 8.000000
v 11.000000 10.000002 7.999998
v -1.968400 13.976677 11.999998
v -1.968400 15.976676 11.999998
v -2.000000 13.999998 -12.000002
v -2.000000 15.999997 -12.000002
v 2.031600 13.976677 11.999998
v 2.031600 15.976676 11.999998
v 2.000000 13.999998 -12.000002
v 2.000000 15.999997 -12.000002
v -12.200000 16.000004 14.258604
v -12.200000 18.000004 14.258604
v -12.200000 16.000004 13.768174
v -12.200000 18.000004 13.768174
v -11.800000 16.000004 14.258604
v -11.800000 18.000004 14.258604
v -11.800000 16.000004 13.768174
v -11.800000 18.000004 13.768174
v 11.000000 15.999998 -13.038343
v 11.000000 17.999996 -13.038343
v 11.000000 15.999998 -14.617210
v 11.000000 17.999996 -14.617210
v 13.000000 15.999998 -13.038343
v 13.000000 17.999996 -13.038343
v 13.000000 15.999998 -14.617210
v 13.000000 17.999996 -14.617210
v 7.000000 0.000001 8.000000
v 7.000000 7.000000 8.000000
v 7.000000 0.000000 4.000000
v 7.000000 7.000000 4.000000
v 11.000000 0.000001 8.000000
v 11.000000 7.000000 8.000000
v 11.000000 0.000000 4.000000
v 11.000000 7.000000 4.000000
v 11.000000 0.000001 8.000000
v 11.000000 4.000000 8.000000
v 11.000000 0.000000 4.000000
v 11.000000 4.000000 4.000000
v 15.000000 0.000001 8.000000
v 15.000000 4.000000 8.000000
v 15.000000 0.000000 4.000000
v 15.000000 4.000000 4.000000
v 11.000000 0.000000 4.000000
v 11.000000 2.000000 4.000000
v 11.000000 0.000000 0.000000
v 11.000000 2.000000 -0.000000
v 15.000000 0.000000 4.000000
v 15.000000 2.000000 4.000000
v 15.000000 0.000000 0.000000
v 15.000000 2.000000 -0.000000
vn -1.0000 -0.0000 -0.0000
vn -0.0000 -0.0000 -1.0000
vn 1.0000 -0.0000 -0.0000
vn -0.0000 -0.0000 1.0000
vn -0.0000 -1.0000 -0.0000
vn -0.0000 1.0000 -0.0000
vn -1.0000 -0.0000 0.0013
vn 1.0000 -0.0000 -0.0013
vn -0.0000 -1.0000 -0.0010
vn -0.0000 1.0000 0.0010
vt 0.625000 0.000000
vt 0.375000 0.250000
vt 0.375000 0.000000
vt 0.625000 0.250000
vt 0.375000 0.500000
vt 0.625000 0.750000
vt 0.375000 0.750000
vt 0.375000 1.000000
vt 0.125000 0.750000
vt 0.125000 0.500000
vt 0.875000 0.500000
vt 0.625000 0.500000
vt 0.875000 0.750000
vt 0.000000 0.000000
vt 0.625000 1.000000
s 1
usemtl マテリアル.001
f 2/1/1 3/2/1 1/3/1
f 4/4/2 7/5/2 3/2/2
f 7/5/3 6/6/3 5/7/3
f 6/6/4 1/8/4 5/7/4
f 7/5/5 1/9/5 3/10/5
f 4/11/6 6/6/6 8/12/6
f 11/2/3 10/1/3 9/3/3
f 15/5/4 12/4/4 11/2/4
f 13/7/1 16/12/1 15/5/1
f 9/8/2 14/6/2 13/7/2
f 9/9/6 15/5/6 11/10/6
f 18/1/1 19/2/1 17/3/1
f 20/4/2 23/5/2 19/2/2
f 24/12/3 21/7/3 23/5/3
f 22/6/4 17/8/4 21/7/4
f 23/5/5 17/9/5 19/10/5
f 20/11/6 22/6/6 24/12/6
f 25/3/1 28/4/1 27/2/1
f 28/4/2 31/5/2 27/2/2
f 32/12/3 29/7/3 31/5/3
f 30/6/4 25/8/4 29/7/4
f 31/5/5 25/9/5 27/10/5
f 28/11/6 30/6/6 32/12/6
f 33/3/1 36/4/1 35/2/1
f 36/4/2 39/5/2 35/2/2
f 40/12/3 37/7/3 39/5/3
f 38/6/4 33/8/4 37/7/4
f 39/5/5 33/9/5 35/10/5
f 36/11/6 38/6/6 40/12/6
f 42/1/7 43/2/7 41/3/7
f 44/4/2 47/5/2 43/2/2
f 47/5/8 46/6/8 45/7/8
f 46/6/4 41/8/4 45/7/4
f 47/5/9 41/9/9 43/10/9
f 48/12/10 42/13/10 46/6/10
f 50/14/1 51/14/1 49/14/1
f 52/14/2 55/14/2 51/14/2
f 56/14/3 53/14/3 55/14/3
f 54/14/4 49/14/4 53/14/4
f 55/14/5 49/14/5 51/14/5
f 52/14/6 54/14/6 56/14/6
f 58/14/1 59/14/1 57/14/1
f 60/14/2 63/14/2 59/14/2
f 64/14/3 61/14/3 63/14/3
f 62/14/4 57/14/4 61/14/4
f 63/14/5 57/14/5 59/14/5
f 60/14/6 62/14/6 64/14/6
f 2/1/1 4/4/1 3/2/1
f 4/4/2 8/12/2 7/5/2
f 7/5/3 8/12/3 6/6/3
f 6/6/4 2/15/4 1/8/4
f 7/5/5 5/7/5 1/9/5
f 4/11/6 2/13/6 6/6/6
f 11/2/3 12/4/3 10/1/3
f 15/5/4 16/12/4 12/4/4
f 13/7/1 14/6/1 16/12/1
f 9/8/2 10/15/2 14/6/2
f 9/9/6 13/7/6 15/5/6
f 18/1/1 20/4/1 19/2/1
f 20/4/2 24/12/2 23/5/2
f 24/12/3 22/6/3 21/7/3
f 22/6/4 18/15/4 17/8/4
f 23/5/5 21/7/5 17/9/5
f 20/11/6 18/13/6 22/6/6
f 25/3/1 26/1/1 28/4/1
f 28/4/2 32/12/2 31/5/2
f 32/12/3 30/6/3 29/7/3
f 30/6/4 26/15/4 25/8/4
f 31/5/5 29/7/5 25/9/5
f 28/11/6 26/13/6 30/6/6
f 33/3/1 34/1/1 36/4/1
f 36/4/2 40/12/2 39/5/2
f 40/12/3 38/6/3 37/7/3
f 38/6/4 34/15/4 33/8/4
f 39/5/5 37/7/5 33/9/5
f 36/11/6 34/13/6 38/6/6
f 42/1/7 44/4/7 43/2/7
f 44/4/2 48/12/2 47/5/2
f 47/5/8 48/12/8 46/6/8
f 46/6/4 42/15/4 41/8/4
f 47/5/9 45/7/9 41/9/9
f 48/12/10 44/11/10 42/13/10
f 50/14/1 52/14/1 51/14/1
f 52/14/2 56/14/2 55/14/2
f 56/14/3 54/14/3 53/14/3
f 54/14/4 50/14/4 49/14/4
f 55/14/5 53/14/5 49/14/5
f 52/14/6 50/14/6 54/14/6
f 58/14/1 60/14/1 59/14/1
f 60/14/2 64/14/2 63/14/2
f 64/14/3 62/14/3 61/14/3
f 62/14/4 58/14/4 57/14/4
f 63/14/5 61/14/5 57/14/5
f 60/14/6 58/14/6 62/14/6
usemtl マテリアル
f 66/14/1 67/14/1 65/14/1
f 68/14/2 71/14/2 67/14/2
f 71/14/3 70/14/3 69/14/3
f 70/14/4 65/14/4 69/14/4
f 71/14/5 65/14/5 67/14/5
f 68/14/6 70/14/6 72/14/6
f 74/14/1 75/14/1 73/14/1
f 76/14/2 79/14/2 75/14/2
f 79/14/3 78/14/3 77/14/3
f 78/14/4 73/14/4 77/14/4
f 79/14/5 73/14/5 75/14/5
f 76/14/6 78/14/6 80/14/6
f 82/14/1 83/14/1 81/14/1
f 84/14/2 87/14/2 83/14/2
f 87/14/3 86/14/3 85/14/3
f 86/14/4 81/14/4 85/14/4
f 87/14/5 81/14/5 83/14/5
f 84/14/6 86/14/6 88/14/6
f 66/14/1 68/14/1 67/14/1
f 68/14/2 72/14/2 71/14/2
f 71/14/3 72/14/3 70/14/3
f 70/14/4 66/14/4 65/14/4
f 71/14/5 69/14/5 65/14/5
f 68/14/6 66/14/6 70/14/6
f 74/14/1 76/14/1 75/14/1
f 76/14/2 80/14/2 79/14/2
f 79/14/3 80/14/3 78/14/3
f 78/14/4 74/14/4 73/14/4
f 79/14/5 77/14/5 73/14/5
f 76/14/6 74/14/6 78/14/6
f 82/14/1 84/14/1 83/14/1
f 84/14/2 88/14/2 87/14/2
f 87/14/3 88/14/3 86/14/3
f 86/14/4 82/14/4 81/14/4
f 87/14/5 85/14/5 81/14/5
f 84/14/6 82/14/6 86/14/6
