# Blender 4.4.3
# www.blender.org
mtllib Stage2.mtl
o 立方体.001
v -15.000000 -0.000005 -11.999975
v -15.000000 15.999995 -12.000030
v -15.000000 -0.000006 -15.000000
v -15.000000 15.999995 -15.000051
v 15.000000 -0.000005 -11.999975
v 15.000000 15.999995 -12.000030
v 15.000000 -0.000006 -15.000000
v 15.000000 15.999995 -15.000051
v -15.000000 0.000006 15.000000
v -15.000000 -0.000006 -15.000000
v 15.000000 0.000006 15.000000
v 15.000000 -0.000006 -15.000000
v -15.000000 0.000006 15.000000
v -15.000000 16.000010 14.999997
v -15.000000 0.000006 12.000000
v -15.000000 16.000000 11.999997
v 15.000000 0.000006 15.000000
v 15.000000 16.000010 14.999997
v 15.000000 0.000006 12.000000
v 15.000000 16.000000 11.999997
v 11.000000 0.000006 12.000000
v 11.000000 13.000005 11.999995
v 11.000000 0.000005 8.000000
v 11.000000 13.000004 7.999995
v 15.000000 0.000006 12.000000
v 15.000000 13.000005 11.999995
v 15.000000 0.000005 8.000000
v 15.000000 13.000004 7.999995
v 7.000000 0.000006 12.000000
v 7.000000 10.000005 11.999995
v 7.000000 0.000005 8.000000
v 7.000000 10.000005 7.999995
v 11.000000 0.000006 12.000000
v 11.000000 10.000005 11.999995
v 11.000000 0.000005 8.000000
v 11.000000 10.000005 7.999995
v 7.000000 0.000004 8.000000
v 7.000000 7.000000 8.000000
v 7.000000 0.000000 4.000000
v 7.000000 7.000000 4.000000
v 11.000000 0.000004 8.000000
v 11.000000 7.000000 8.000000
v 11.000000 0.000000 4.000000
v 11.000000 7.000000 4.000000
v 11.000000 0.000004 8.000000
v 11.000000 4.000000 8.000000
v 11.000000 0.000000 4.000000
v 11.000000 4.000000 4.000000
v 15.000000 0.000004 8.000000
v 15.000000 4.000000 8.000000
v 15.000000 0.000000 4.000000
v 15.000000 4.000000 4.000000
v 11.000000 0.000000 4.000000
v 11.000000 2.000000 4.000000
v 11.000000 0.000000 0.000000
v 11.000000 2.000000 -0.000000
v 15.000000 0.000000 4.000000
v 15.000000 2.000000 4.000000
v 15.000000 0.000000 0.000000
v 15.000000 2.000000 -0.000000
vn -0.0000 -1.0000 -0.0000
vn -0.0000 1.0000 -0.0000
vn -0.0000 -0.0000 1.0000
vn 1.0000 -0.0000 -0.0000
vn -1.0000 -0.0000 -0.0000
vn -0.0000 -0.0000 -1.0000
vt 0.375000 0.500000
vt 0.125000 0.750000
vt 0.125000 0.500000
vt 0.875000 0.500000
vt 0.625000 0.750000
vt 0.625000 0.500000
vt 0.375000 1.000000
vt 0.375000 0.750000
vt 0.000000 0.000000
vt 0.625000 0.000000
vt 0.375000 0.250000
vt 0.375000 0.000000
vt 0.625000 0.250000
vt 0.875000 0.750000
vt 0.625000 1.000000
s 1
usemtl マテリアル
f 7/1/1 1/2/1 3/3/1
f 19/1/1 13/2/1 15/3/1
f 26/5/3 21/7/3 25/8/3
f 27/1/1 21/2/1 23/3/1
f 35/1/4 34/5/4 33/8/4
f 34/5/3 29/7/3 33/8/3
f 35/1/1 29/2/1 31/3/1
f 2/10/5 3/11/5 1/12/5
f 4/13/6 7/1/6 3/11/6
f 7/1/4 6/5/4 5/8/4
f 6/5/3 1/7/3 5/8/3
f 13/12/5 16/13/5 15/11/5
f 16/13/6 19/1/6 15/11/6
f 20/6/4 17/8/4 19/1/4
f 18/5/3 13/7/3 17/8/3
f 22/10/5 23/11/5 21/12/5
f 24/13/6 27/1/6 23/11/6
f 27/1/4 26/5/4 25/8/4
f 30/10/5 31/11/5 29/12/5
f 32/13/6 35/1/6 31/11/6
f 37/9/5 40/9/5 39/9/5
f 40/9/6 43/9/6 39/9/6
f 44/9/4 41/9/4 43/9/4
f 42/9/3 37/9/3 41/9/3
f 43/9/1 37/9/1 39/9/1
f 45/9/5 48/9/5 47/9/5
f 48/9/6 51/9/6 47/9/6
f 52/9/4 49/9/4 51/9/4
f 50/9/3 45/9/3 49/9/3
f 51/9/1 45/9/1 47/9/1
f 54/9/5 55/9/5 53/9/5
f 56/9/6 59/9/6 55/9/6
f 60/9/4 57/9/4 59/9/4
f 58/9/3 53/9/3 57/9/3
f 59/9/1 53/9/1 55/9/1
f 7/1/1 5/8/1 1/2/1
f 19/1/1 17/8/1 13/2/1
f 26/5/3 22/15/3 21/7/3
f 27/1/1 25/8/1 21/2/1
f 35/1/4 36/6/4 34/5/4
f 34/5/3 30/15/3 29/7/3
f 35/1/1 33/8/1 29/2/1
f 2/10/5 4/13/5 3/11/5
f 4/13/6 8/6/6 7/1/6
f 7/1/4 8/6/4 6/5/4
f 6/5/3 2/15/3 1/7/3
f 13/12/5 14/10/5 16/13/5
f 16/13/6 20/6/6 19/1/6
f 20/6/4 18/5/4 17/8/4
f 18/5/3 14/15/3 13/7/3
f 22/10/5 24/13/5 23/11/5
f 24/13/6 28/6/6 27/1/6
f 27/1/4 28/6/4 26/5/4
f 30/10/5 32/13/5 31/11/5
f 32/13/6 36/6/6 35/1/6
f 37/9/5 38/9/5 40/9/5
f 40/9/6 44/9/6 43/9/6
f 44/9/4 42/9/4 41/9/4
f 42/9/3 38/9/3 37/9/3
f 43/9/1 41/9/1 37/9/1
f 45/9/5 46/9/5 48/9/5
f 48/9/6 52/9/6 51/9/6
f 52/9/4 50/9/4 49/9/4
f 50/9/3 46/9/3 45/9/3
f 51/9/1 49/9/1 45/9/1
f 54/9/5 56/9/5 55/9/5
f 56/9/6 60/9/6 59/9/6
f 60/9/4 58/9/4 57/9/4
f 58/9/3 54/9/3 53/9/3
f 59/9/1 57/9/1 53/9/1
usemtl マテリアル.001
f 4/4/2 6/5/2 8/6/2
f 9/2/2 12/1/2 10/3/2
f 16/4/2 18/5/2 20/6/2
f 24/4/2 26/5/2 28/6/2
f 32/4/2 34/5/2 36/6/2
f 40/9/2 42/9/2 44/9/2
f 48/9/2 50/9/2 52/9/2
f 56/9/2 58/9/2 60/9/2
f 4/4/2 2/14/2 6/5/2
f 9/2/2 11/8/2 12/1/2
f 16/4/2 14/14/2 18/5/2
f 24/4/2 22/14/2 26/5/2
f 32/4/2 30/14/2 34/5/2
f 40/9/2 38/9/2 42/9/2
f 48/9/2 46/9/2 50/9/2
f 56/9/2 54/9/2 58/9/2
