# Blender 4.1.1
# www.blender.org
mtllib proStageCollision.mtl
o 立方体.006
v -30.000000 8.000000 -14.000000
v -30.000000 12.000000 -14.000000
v -30.000000 8.000000 -22.000000
v -30.000000 12.000000 -22.000000
v -22.000000 8.000000 -14.000000
v -22.000000 12.000000 -14.000000
v -22.000000 8.000000 -22.000000
v -22.000000 12.000000 -22.000000
v 45.999992 24.000004 -26.000000
v 45.999992 0.000004 -26.000000
v 46.000008 24.000004 26.000000
v 46.000008 0.000004 26.000000
v -45.999985 24.000004 26.000000
v -45.999981 0.000004 26.000000
v -46.000019 24.000004 -26.000000
v -46.000015 0.000004 -26.000000
v -46.000000 24.000000 -26.000000
v -46.000000 0.000000 -26.000000
v 46.000000 24.000008 -26.000000
v 46.000000 0.000008 -26.000000
v 46.000000 24.000008 25.999962
v 46.000000 0.000008 25.999962
v -46.000000 24.000000 26.000038
v -46.000000 0.000000 26.000038
v -46.000000 0.000000 26.000000
v 46.000000 0.000000 26.000000
v -46.000000 0.000000 -26.000000
v 46.000000 0.000000 -26.000000
v -46.000000 0.000000 26.000000
v -46.000000 12.000000 26.000000
v -46.000000 0.000000 10.000000
v -46.000000 12.000000 10.000000
v 46.000000 0.000000 26.000000
v 46.000000 12.000000 26.000000
v 46.000000 0.000000 10.000000
v 46.000000 12.000000 10.000000
v -46.000000 0.000000 10.000000
v -46.000000 4.000000 10.000000
v -46.000000 0.000000 6.000000
v -46.000000 4.000000 6.000000
v -42.000000 0.000000 10.000000
v -42.000000 4.000000 10.000000
v -42.000000 0.000000 6.000000
v -42.000000 4.000000 6.000000
v -42.000000 0.000000 10.000000
v -42.000000 4.000000 10.000000
v -42.000000 0.000000 6.000000
v -42.000000 4.000000 6.000000
v -38.000000 0.000000 10.000000
v -38.000000 4.000000 10.000000
v -38.000000 0.000000 6.000000
v -38.000000 4.000000 6.000000
v -46.000000 0.000000 6.000000
v -46.000000 4.000000 6.000000
v -46.000000 0.000000 2.000000
v -46.000000 4.000000 2.000000
v -42.000000 0.000000 6.000000
v -42.000000 4.000000 6.000000
v -42.000000 0.000000 2.000000
v -42.000000 4.000000 2.000000
v -46.000000 4.000000 10.000000
v -46.000000 8.000000 10.000000
v -46.000000 4.000000 6.000000
v -46.000000 8.000000 6.000000
v -42.000000 4.000000 10.000000
v -42.000000 8.000000 10.000000
v -42.000000 4.000000 6.000000
v -42.000000 8.000000 6.000000
v -30.000000 8.000000 10.000000
v -30.000000 12.000000 10.000000
v -30.000000 8.000000 -6.000000
v -30.000000 12.000000 -6.000000
v -26.000000 8.000000 10.000000
v -26.000000 12.000000 10.000000
v -26.000000 8.000000 -6.000000
v -26.000000 12.000000 -6.000000
v -0.000000 0.000000 26.000000
v 0.000000 24.000000 26.000000
v -0.000000 0.000000 -26.000000
v 0.000000 24.000000 -26.000000
vn -1.0000 -0.0000 -0.0000
vn -0.0000 -0.0000 -1.0000
vn 1.0000 -0.0000 -0.0000
vn -0.0000 -0.0000 1.0000
vn -0.0000 -1.0000 -0.0000
vn -0.0000 1.0000 -0.0000
vt 0.375000 0.000000
vt 0.625000 0.000000
vt 0.625000 0.250000
vt 0.375000 0.250000
vt 0.625000 0.500000
vt 0.375000 0.500000
vt 0.625000 0.750000
vt 0.375000 0.750000
vt 0.625000 1.000000
vt 0.375000 1.000000
vt 0.125000 0.500000
vt 0.125000 0.750000
vt 0.875000 0.500000
vt 0.875000 0.750000
vt 0.000000 0.000000
vt 1.000000 0.000000
vt 1.000000 1.000000
vt 0.000000 1.000000
s 0
f 1/1/1 2/2/1 4/3/1 3/4/1
f 3/4/2 4/3/2 8/5/2 7/6/2
f 7/6/3 8/5/3 6/7/3 5/8/3
f 5/8/4 6/7/4 2/9/4 1/10/4
f 3/11/5 7/6/5 5/8/5 1/12/5
f 8/5/6 4/13/6 2/14/6 6/7/6
f 9/15/1 10/16/1 12/17/1 11/18/1
f 13/15/3 14/16/3 16/17/3 15/18/3
f 17/15/4 18/16/4 20/17/4 19/18/4
f 21/15/2 22/16/2 24/17/2 23/18/2
f 25/15/6 26/16/6 28/17/6 27/18/6
f 29/1/1 30/2/1 32/3/1 31/4/1
f 31/4/2 32/3/2 36/5/2 35/6/2
f 35/6/3 36/5/3 34/7/3 33/8/3
f 33/8/4 34/7/4 30/9/4 29/10/4
f 31/11/5 35/6/5 33/8/5 29/12/5
f 36/5/6 32/13/6 30/14/6 34/7/6
f 37/1/1 38/2/1 40/3/1 39/4/1
f 39/4/2 40/3/2 44/5/2 43/6/2
f 43/6/3 44/5/3 42/7/3 41/8/3
f 41/8/4 42/7/4 38/9/4 37/10/4
f 39/11/5 43/6/5 41/8/5 37/12/5
f 44/5/6 40/13/6 38/14/6 42/7/6
f 45/1/1 46/2/1 48/3/1 47/4/1
f 47/4/2 48/3/2 52/5/2 51/6/2
f 51/6/3 52/5/3 50/7/3 49/8/3
f 49/8/4 50/7/4 46/9/4 45/10/4
f 47/11/5 51/6/5 49/8/5 45/12/5
f 52/5/6 48/13/6 46/14/6 50/7/6
f 53/1/1 54/2/1 56/3/1 55/4/1
f 55/4/2 56/3/2 60/5/2 59/6/2
f 59/6/3 60/5/3 58/7/3 57/8/3
f 57/8/4 58/7/4 54/9/4 53/10/4
f 55/11/5 59/6/5 57/8/5 53/12/5
f 60/5/6 56/13/6 54/14/6 58/7/6
f 61/1/1 62/2/1 64/3/1 63/4/1
f 63/4/2 64/3/2 68/5/2 67/6/2
f 67/6/3 68/5/3 66/7/3 65/8/3
f 65/8/4 66/7/4 62/9/4 61/10/4
f 63/11/5 67/6/5 65/8/5 61/12/5
f 68/5/6 64/13/6 62/14/6 66/7/6
f 69/1/1 70/2/1 72/3/1 71/4/1
f 71/4/2 72/3/2 76/5/2 75/6/2
f 75/6/3 76/5/3 74/7/3 73/8/3
f 73/8/4 74/7/4 70/9/4 69/10/4
f 71/11/5 75/6/5 73/8/5 69/12/5
f 76/5/6 72/13/6 70/14/6 74/7/6
f 77/15/1 78/16/1 80/17/1 79/18/1
