# Blender 4.1.1
# www.blender.org
mtllib stageCollision.mtl
o 平面.006
v -12.000010 -0.000002 26.475256
v -12.000012 -0.000002 -26.424746
v -12.000009 23.999998 26.475256
v -12.000011 23.999998 -26.424746
v -12.000018 -0.000002 -26.474800
v 11.999982 -0.000002 -26.474800
v -12.000018 23.999998 -26.474800
v 11.999982 23.999998 -26.474800
v 12.000004 0.000004 17.469997
v -11.999996 0.000004 17.470005
v 12.000004 24.000004 17.469997
v -11.999996 24.000004 17.470005
v 11.999974 -0.000002 -26.474760
v 12.000000 -0.000002 26.525240
v 11.999973 23.999998 -26.474760
v 11.999999 23.999998 26.525240
vn 1.0000 -0.0000 -0.0000
vn -0.0000 -0.0000 1.0000
vn -0.0000 -0.0000 -1.0000
vn -1.0000 -0.0000 -0.0000
vt 0.000000 0.000000
vt 1.000000 0.000000
vt 1.000000 1.000000
vt 0.000000 1.000000
s 0
f 1/1/1 2/2/1 4/3/1 3/4/1
f 5/1/2 6/2/2 8/3/2 7/4/2
f 9/1/3 10/2/3 12/3/3 11/4/3
f 13/1/4 14/2/4 16/3/4 15/4/4
