# Blender 4.1.1
# www.blender.org
mtllib 01Stage.mtl
o 立方体
v -5.000001 -0.000001 15.000000
v -5.000001 7.999999 14.999999
v -5.000001 -0.000002 5.000000
v -5.000001 7.999999 5.000000
v 14.999999 7.999999 14.999999
v 14.999999 -0.000002 5.000000
v 14.999999 7.999999 5.000000
v -15.000000 0.000001 15.000000
v 15.000000 0.000001 15.000000
v -15.000000 -0.000001 -15.000000
v 15.000000 -0.000001 -15.000000
v -15.000001 24.000002 14.999998
v -14.999999 0.000001 15.000000
v -15.000001 23.999998 -15.000002
v -14.999999 -0.000001 -15.000000
v 14.999987 23.999998 -15.000002
v 14.999989 -0.000001 -15.000000
v 14.999996 24.000002 14.999998
v 14.999998 0.000001 15.000000
v 14.999999 24.000002 14.999997
v 15.000001 0.000001 14.999999
v -15.000001 24.000000 14.999999
v -14.999999 -0.000001 15.000001
v -15.000001 23.999996 -14.999987
v -14.999999 -0.000003 -14.999985
v 14.999999 23.999998 -15.000002
v 15.000001 -0.000001 -15.000000
v -15.000001 -0.000002 5.400000
v -15.000001 5.999999 5.400000
v -15.000001 -0.000002 5.000000
v -15.000001 5.999999 5.000000
v -5.000001 -0.000002 5.400000
v -5.000001 5.999999 5.400000
v -5.000001 -0.000002 5.000000
v -5.000001 5.999999 5.000000
v -15.000001 3.999999 15.000000
v -15.000001 -0.000001 13.000000
v -15.000001 3.999999 13.000000
v -13.000001 -0.000001 15.000000
v -13.000001 3.999999 15.000000
v -13.000001 -0.000001 13.000000
v -13.000001 3.999999 13.000000
v -11.600001 6.199999 14.960000
v -8.400001 6.199999 14.960000
v -11.600001 6.199999 13.040000
v -8.400001 6.199999 13.040000
v -11.600001 5.799999 14.960000
v -8.400001 5.799999 14.960000
v -11.600001 5.799999 13.040000
v -8.400001 5.799999 13.040000
v -15.000001 -0.000001 11.000000
v -15.000001 1.999999 11.000000
v -15.000001 -0.000001 9.000000
v -15.000001 1.999999 9.000000
v -13.000001 -0.000001 11.000000
v -13.000001 1.999999 11.000000
v -13.000001 -0.000001 9.000000
v -13.000001 1.999999 9.000000
v 13.000000 2.000000 -1.000000
v 13.000000 4.000000 -1.000000
v 13.000000 2.000000 -5.000000
v 13.000000 4.000000 -5.000000
v 15.000000 2.000000 -1.000000
v 15.000000 4.000000 -1.000000
v 15.000000 2.000000 -5.000000
v 15.000000 4.000000 -5.000000
v 13.000000 0.000000 0.000000
v 13.000000 2.000000 -0.000000
v 13.000000 -0.000001 -10.000000
v 13.000000 1.999999 -10.000000
v 15.000000 0.000000 0.000000
v 15.000000 2.000000 -0.000000
v 15.000000 -0.000001 -10.000000
v 15.000000 1.999999 -10.000000
v -6.000000 -0.000000 -3.000000
v -6.000000 4.000000 -3.000000
v -6.000000 -0.000000 -5.000000
v -6.000000 4.000000 -5.000000
v -4.000000 -0.000000 -3.000000
v -4.000000 4.000000 -3.000000
v -4.000000 -0.000000 -5.000000
v -4.000000 4.000000 -5.000000
v -1.000000 -0.000000 -5.000000
v -1.000000 2.000000 -5.000000
v -1.000000 -0.000001 -7.000000
v -1.000000 2.000000 -7.000000
v 1.000000 -0.000000 -5.000000
v 1.000000 2.000000 -5.000000
v 1.000000 -0.000001 -7.000000
v 1.000000 2.000000 -7.000000
v -12.000000 0.000000 2.000000
v -12.000000 8.000000 1.999999
v -12.000000 0.000000 0.000000
v -12.000000 8.000000 -0.000001
v -10.000000 0.000000 2.000000
v -10.000000 8.000000 1.999999
v -10.000000 0.000000 0.000000
v -10.000000 8.000000 -0.000001
v -9.000000 -0.000000 -6.000000
v -9.000000 6.000000 -6.000000
v -9.000000 -0.000001 -8.000000
v -9.000000 6.000000 -8.000000
v -7.000000 -0.000000 -6.000000
v -7.000000 6.000000 -6.000000
v -7.000000 -0.000001 -8.000000
v -7.000000 6.000000 -8.000000
v -12.000000 -0.000000 -2.000000
v -12.000000 6.000000 -2.000000
v -12.000000 -0.000000 -4.000000
v -12.000000 6.000000 -4.000000
v -10.000000 -0.000000 -2.000000
v -10.000000 6.000000 -2.000000
v -10.000000 -0.000000 -4.000000
v -10.000000 6.000000 -4.000000
v -5.000000 -0.000001 -9.000000
v -5.000000 2.999999 -9.000000
v -5.000000 -0.000001 -11.000000
v -5.000000 2.999999 -11.000000
v -3.000000 -0.000001 -9.000000
v -3.000000 2.999999 -9.000000
v -3.000000 -0.000001 -11.000000
v -3.000000 2.999999 -11.000000
vn -1.0000 -0.0000 -0.0000
vn -0.0000 -0.0000 -1.0000
vn -0.0000 1.0000 -0.0000
vn 1.0000 -0.0000 -0.0000
vn -0.0000 -0.0000 1.0000
vn -0.0000 -1.0000 -0.0000
vt 0.625000 0.000000
vt 0.375000 0.250000
vt 0.375000 0.000000
vt 0.625000 0.250000
vt 0.375000 0.500000
vt 3.891870 -1.504065
vt -2.908130 2.495935
vt -2.908130 -1.504065
vt -4.500000 -4.500000
vt 5.500000 5.500000
vt -4.500000 5.500000
vt 0.023041 0.971199
vt 0.400000 0.500000
vt 0.400000 0.971199
vt 0.776959 0.028801
vt 0.400000 0.500000
vt 0.400000 0.028801
vt 0.400000 0.028801
vt 0.023041 0.500000
vt 0.023041 0.028801
vt 0.400000 0.971199
vt 0.776959 0.500000
vt 0.776959 0.971199
vt 0.967742 0.000000
vt 0.483871 0.806451
vt 0.483871 0.000000
vt 0.483871 0.000000
vt 0.000000 0.806451
vt 0.000000 0.000000
vt 1.000000 0.806451
vt 0.967742 -0.000000
vt 1.000000 -0.000000
vt 0.625000 0.500000
vt 0.375000 0.750000
vt 0.875000 0.500000
vt 0.625000 0.750000
vt 0.125000 0.750000
vt 0.125000 0.500000
vt 0.375000 1.000000
vt 0.759007 0.319119
vt 0.240994 0.837132
vt 0.240994 0.319119
vt 0.759510 0.314708
vt 0.240490 0.833729
vt 0.240490 0.314708
vt 3.891870 2.495935
vt 5.500000 -4.499999
vt 0.023041 0.500000
vt 0.776959 0.500000
vt 0.400000 0.500000
vt 0.967742 0.806451
vt 0.483871 0.806451
vt 0.967742 0.806451
vt 0.875000 0.750000
vt 0.625000 1.000000
vt 0.759007 0.837132
vt 0.759510 0.833729
s 0
usemtl マテリアル.003
f 38/4/2 41/5/2 37/2/2
f 42/33/4 39/34/4 41/5/4
f 38/35/3 40/36/3 42/33/3
f 44/1/3 45/2/3 43/3/3
f 45/2/2 50/33/2 49/5/2
f 50/33/6 47/34/6 49/5/6
f 49/5/1 43/37/1 45/38/1
f 46/35/4 48/36/4 50/33/4
f 54/4/2 57/5/2 53/2/2
f 58/33/4 55/34/4 57/5/4
f 56/36/5 51/39/5 55/34/5
f 54/35/3 56/36/3 58/33/3
f 60/1/1 61/2/1 59/3/1
f 62/4/2 65/5/2 61/2/2
f 64/36/5 59/39/5 63/34/5
f 62/35/3 64/36/3 66/33/3
f 68/40/1 69/41/1 67/42/1
f 70/4/2 73/5/2 69/2/2
f 72/36/5 67/39/5 71/34/5
f 70/43/3 72/44/3 74/45/3
f 81/5/6 75/37/6 77/38/6
f 97/5/6 91/37/6 93/38/6
f 105/5/6 99/37/6 101/38/6
f 113/5/6 107/37/6 109/38/6
f 121/5/6 115/37/6 117/38/6
f 38/4/2 42/33/2 41/5/2
f 42/33/4 40/36/4 39/34/4
f 38/35/3 36/54/3 40/36/3
f 44/1/3 46/4/3 45/2/3
f 45/2/2 46/4/2 50/33/2
f 50/33/6 48/36/6 47/34/6
f 49/5/1 47/34/1 43/37/1
f 46/35/4 44/54/4 48/36/4
f 54/4/2 58/33/2 57/5/2
f 58/33/4 56/36/4 55/34/4
f 56/36/5 52/55/5 51/39/5
f 54/35/3 52/54/3 56/36/3
f 60/1/1 62/4/1 61/2/1
f 62/4/2 66/33/2 65/5/2
f 64/36/5 60/55/5 59/39/5
f 62/35/3 60/54/3 64/36/3
f 68/40/1 70/56/1 69/41/1
f 70/4/2 74/33/2 73/5/2
f 72/36/5 68/55/5 67/39/5
f 70/43/3 68/57/3 72/44/3
f 81/5/6 79/34/6 75/37/6
f 97/5/6 95/34/6 91/37/6
f 105/5/6 103/34/6 99/37/6
f 113/5/6 111/34/6 107/37/6
f 121/5/6 119/34/6 115/37/6
usemtl マテリアル
f 4/6/3 5/7/3 7/8/3
f 9/9/3 10/10/3 8/11/3
f 4/6/3 2/46/3 5/7/3
f 9/9/3 11/47/3 10/10/3
usemtl マテリアル.001
f 31/24/2 34/25/2 30/26/2
f 33/27/5 28/28/5 32/29/5
f 31/30/3 33/31/3 35/32/3
f 31/24/2 35/51/2 34/25/2
f 33/27/5 29/52/5 28/28/5
f 31/30/3 29/53/3 33/31/3
usemtl マテリアル.005
f 13/12/4 14/13/4 12/14/4
f 17/15/1 18/16/1 16/17/1
f 21/18/2 22/19/2 20/20/2
f 25/21/5 26/22/5 24/23/5
f 13/12/4 15/48/4 14/13/4
f 17/15/1 19/49/1 18/16/1
f 21/18/2 23/50/2 22/19/2
f 25/21/5 27/13/5 26/22/5
usemtl マテリアル.006
f 2/1/1 3/2/1 1/3/1
f 4/4/2 6/5/2 3/2/2
f 2/1/1 4/4/1 3/2/1
f 4/4/2 7/33/2 6/5/2
usemtl マテリアル.007
f 76/1/1 77/2/1 75/3/1
f 78/4/2 81/5/2 77/2/2
f 82/33/4 79/34/4 81/5/4
f 80/36/5 75/39/5 79/34/5
f 78/35/3 80/36/3 82/33/3
f 84/1/1 85/2/1 83/3/1
f 86/4/2 89/5/2 85/2/2
f 90/33/4 87/34/4 89/5/4
f 88/36/5 83/39/5 87/34/5
f 89/5/6 83/37/6 85/38/6
f 86/35/3 88/36/3 90/33/3
f 92/1/1 93/2/1 91/3/1
f 94/4/2 97/5/2 93/2/2
f 98/33/4 95/34/4 97/5/4
f 96/36/5 91/39/5 95/34/5
f 94/35/3 96/36/3 98/33/3
f 100/1/1 101/2/1 99/3/1
f 102/4/2 105/5/2 101/2/2
f 106/33/4 103/34/4 105/5/4
f 104/36/5 99/39/5 103/34/5
f 102/35/3 104/36/3 106/33/3
f 108/1/1 109/2/1 107/3/1
f 110/4/2 113/5/2 109/2/2
f 114/33/4 111/34/4 113/5/4
f 112/36/5 107/39/5 111/34/5
f 110/35/3 112/36/3 114/33/3
f 116/1/1 117/2/1 115/3/1
f 118/4/2 121/5/2 117/2/2
f 122/33/4 119/34/4 121/5/4
f 120/36/5 115/39/5 119/34/5
f 118/35/3 120/36/3 122/33/3
f 76/1/1 78/4/1 77/2/1
f 78/4/2 82/33/2 81/5/2
f 82/33/4 80/36/4 79/34/4
f 80/36/5 76/55/5 75/39/5
f 78/35/3 76/54/3 80/36/3
f 84/1/1 86/4/1 85/2/1
f 86/4/2 90/33/2 89/5/2
f 90/33/4 88/36/4 87/34/4
f 88/36/5 84/55/5 83/39/5
f 89/5/6 87/34/6 83/37/6
f 86/35/3 84/54/3 88/36/3
f 92/1/1 94/4/1 93/2/1
f 94/4/2 98/33/2 97/5/2
f 98/33/4 96/36/4 95/34/4
f 96/36/5 92/55/5 91/39/5
f 94/35/3 92/54/3 96/36/3
f 100/1/1 102/4/1 101/2/1
f 102/4/2 106/33/2 105/5/2
f 106/33/4 104/36/4 103/34/4
f 104/36/5 100/55/5 99/39/5
f 102/35/3 100/54/3 104/36/3
f 108/1/1 110/4/1 109/2/1
f 110/4/2 114/33/2 113/5/2
f 114/33/4 112/36/4 111/34/4
f 112/36/5 108/55/5 107/39/5
f 110/35/3 108/54/3 112/36/3
f 116/1/1 118/4/1 117/2/1
f 118/4/2 122/33/2 121/5/2
f 122/33/4 120/36/4 119/34/4
f 120/36/5 116/55/5 115/39/5
f 118/35/3 116/54/3 120/36/3
