# Blender 4.2.2 LTS
# www.blender.org
mtllib proStage.mtl
o 立方体.006
v -30.000000 7.999998 -14.000002
v -30.000000 11.999998 -14.000002
v -30.000000 7.999998 -22.000000
v -30.000000 11.999996 -22.000000
v -22.000000 7.999998 -14.000002
v -22.000000 11.999998 -14.000002
v -22.000000 7.999998 -22.000000
v -22.000000 11.999996 -22.000000
v 45.999992 24.000000 -26.000004
v 45.999992 0.000000 -26.000000
v 46.000008 24.000008 25.999996
v 46.000008 0.000008 26.000000
v -45.999985 24.000008 25.999996
v -45.999981 0.000008 26.000000
v -46.000019 24.000000 -26.000004
v -46.000015 0.000000 -26.000000
v -46.000000 23.999996 -26.000004
v -46.000000 -0.000004 -26.000000
v 46.000000 24.000004 -26.000004
v 46.000000 0.000004 -26.000000
v 46.000000 24.000011 25.999958
v 46.000000 0.000012 25.999962
v -46.000000 24.000004 26.000034
v -46.000000 0.000004 26.000038
v -46.000000 0.000004 26.000000
v 46.000000 0.000004 26.000000
v -46.000000 -0.000004 -26.000000
v 46.000000 -0.000004 -26.000000
v -46.000000 0.000004 26.000000
v -46.000000 12.000004 26.000000
v -46.000000 0.000002 10.000000
v -46.000000 12.000002 9.999998
v 46.000000 0.000004 26.000000
v 46.000000 12.000004 26.000000
v 46.000000 0.000002 10.000000
v 46.000000 12.000002 9.999998
v -46.000000 0.000002 10.000000
v -46.000000 4.000002 10.000000
v -46.000000 0.000000 6.000000
v -46.000000 4.000000 6.000000
v -42.000000 0.000002 10.000000
v -42.000000 4.000002 10.000000
v -42.000000 0.000000 6.000000
v -42.000000 4.000000 6.000000
v -42.000000 0.000002 10.000000
v -42.000000 4.000002 10.000000
v -42.000000 0.000000 6.000000
v -42.000000 4.000000 6.000000
v -38.000000 0.000002 10.000000
v -38.000000 4.000002 10.000000
v -38.000000 0.000000 6.000000
v -38.000000 4.000000 6.000000
v -46.000000 0.000000 6.000000
v -46.000000 4.000000 6.000000
v -46.000000 0.000000 2.000000
v -46.000000 4.000000 2.000000
v -42.000000 0.000000 6.000000
v -42.000000 4.000000 6.000000
v -42.000000 0.000000 2.000000
v -42.000000 4.000000 2.000000
v -46.000000 4.000002 10.000000
v -46.000000 8.000002 9.999998
v -46.000000 4.000000 6.000000
v -46.000000 8.000000 6.000000
v -42.000000 4.000002 10.000000
v -42.000000 8.000002 9.999998
v -42.000000 4.000000 6.000000
v -42.000000 8.000000 6.000000
v -30.000000 8.000002 9.999998
v -30.000000 12.000002 9.999998
v -30.000000 8.000000 -6.000000
v -30.000000 12.000000 -6.000002
v -26.000000 8.000002 9.999998
v -26.000000 12.000002 9.999998
v -26.000000 8.000000 -6.000000
v -26.000000 12.000000 -6.000002
v 0.000000 0.000004 26.000000
v 0.000000 24.000004 25.999996
v 0.000000 -0.000004 -26.000000
v 0.000000 23.999996 -26.000004
v -42.000000 0.000000 6.000000
v -42.000000 2.000000 6.000000
v -42.000000 0.000000 4.000000
v -42.000000 2.000000 4.000000
v -40.000000 0.000000 6.000000
v -40.000000 2.000000 6.000000
v -40.000000 0.000000 4.000000
v -40.000000 2.000000 4.000000
v -42.000000 4.000002 10.000000
v -42.000000 6.000002 10.000000
v -42.000000 4.000000 8.000000
v -42.000000 6.000001 8.000000
v -40.000000 4.000002 10.000000
v -40.000000 6.000002 10.000000
v -40.000000 4.000000 8.000000
v -40.000000 6.000001 8.000000
v -46.000000 4.000000 6.000000
v -46.000000 6.000001 6.000000
v -46.000000 4.000000 4.000000
v -46.000000 6.000001 4.000000
v -44.000000 4.000000 6.000000
v -44.000000 6.000001 6.000000
v -44.000000 4.000000 4.000000
v -44.000000 6.000001 4.000000
vn -1.0000 -0.0000 -0.0000
vn -0.0000 -0.0000 -1.0000
vn 1.0000 -0.0000 -0.0000
vn -0.0000 -0.0000 1.0000
vn -0.0000 -1.0000 -0.0000
vn -0.0000 1.0000 -0.0000
vt 0.685387 0.567276
vt 0.779663 0.520138
vt 0.685387 0.520138
vt 0.455589 0.567276
vt 0.549865 0.520138
vt 0.455589 0.520138
vt 0.779663 0.567276
vt 0.549865 0.567276
vt 0.549865 0.800020
vt 0.455589 0.705744
vt 0.455589 0.800020
vt 0.549865 0.705744
vt 0.826800 0.425862
vt 0.214007 0.708690
vt 0.826800 0.708690
vt 0.214007 0.425862
vt 0.267037 0.425862
vt 1.351210 0.708690
vt 0.267037 0.708690
vt 1.351210 0.425862
vt 1.351210 0.234364
vt 0.267037 0.847157
vt 0.267037 0.234364
vt 0.214007 0.567276
vt 0.402559 0.425862
vt 0.267037 0.567276
vt 0.402559 0.567276
vt 1.351210 0.567276
vt 1.351210 0.422916
vt 0.267037 0.422916
vt 0.402559 0.473000
vt 0.449697 0.425862
vt 0.267037 0.473000
vt 0.314175 0.425862
vt 0.449697 0.473000
vt 0.314175 0.473000
vt 0.314175 0.470054
vt 0.267037 0.470054
vt 0.314175 0.422916
vt 0.361313 0.425862
vt 0.361313 0.473000
vt 0.361313 0.470054
vt 0.361313 0.422916
vt 0.496835 0.425862
vt 0.314175 0.517192
vt 0.267037 0.517192
vt 0.402559 0.520138
vt 0.267037 0.520138
vt 0.449697 0.520138
vt 0.314175 0.520138
vt 0.591111 0.520138
vt 0.502727 0.520138
vt 0.591111 0.567276
vt 0.502727 0.567276
vt 0.502727 0.611468
vt 0.455589 0.422916
vt 0.455589 0.611468
vt 0.502727 0.422916
vt 1.351210 0.847157
vt 0.496835 0.473000
s 0
usemtl マテリアル.001
f 2/1/1 3/2/1 1/3/1
f 4/4/2 7/5/2 3/6/2
f 8/7/3 5/3/3 7/2/3
f 6/8/4 1/6/4 5/5/4
f 7/9/5 1/10/5 3/11/5
f 4/11/6 6/12/6 8/9/6
f 10/13/1 11/14/1 9/15/1
f 14/16/3 15/15/3 13/14/3
f 18/17/4 19/18/4 17/19/4
f 22/20/2 23/19/2 21/18/2
f 26/21/6 27/22/6 25/23/6
f 30/24/1 31/25/1 29/16/1
f 32/26/2 35/20/2 31/17/2
f 36/27/3 33/16/3 35/25/3
f 34/28/4 29/17/4 33/20/4
f 35/29/5 29/23/5 31/30/5
f 32/30/6 34/21/6 36/29/6
f 38/31/1 39/32/1 37/25/1
f 40/33/2 43/34/2 39/17/2
f 44/35/3 41/25/3 43/32/3
f 42/36/4 37/17/4 41/34/4
f 43/37/5 37/30/5 39/38/5
f 40/38/6 42/39/6 44/37/6
f 46/31/1 47/32/1 45/25/1
f 48/36/2 51/40/2 47/34/2
f 52/35/3 49/25/3 51/32/3
f 50/41/4 45/34/4 49/40/4
f 51/42/5 45/39/5 47/37/5
f 48/37/6 50/43/6 52/42/6
f 54/35/1 55/44/1 53/32/1
f 58/36/4 53/17/4 57/34/4
f 59/45/5 53/38/5 55/46/5
f 62/47/1 63/35/1 61/31/1
f 64/48/2 67/36/2 63/33/2
f 68/49/3 65/31/3 67/35/3
f 66/50/4 61/33/4 65/36/4
f 67/37/5 61/30/5 63/38/5
f 64/38/6 66/39/6 68/37/6
f 70/27/1 71/51/1 69/47/1
f 72/4/2 75/52/2 71/6/2
f 76/53/3 73/47/3 75/51/3
f 74/54/4 69/6/4 73/52/4
f 75/55/5 69/56/5 71/57/5
f 72/57/6 74/58/6 76/55/6
f 78/14/1 79/13/1 77/16/1
f 2/1/1 4/7/1 3/2/1
f 4/4/2 8/8/2 7/5/2
f 8/7/3 6/1/3 5/3/3
f 6/8/4 2/4/4 1/6/4
f 7/9/5 5/12/5 1/10/5
f 4/11/6 2/10/6 6/12/6
f 10/13/1 12/16/1 11/14/1
f 14/16/3 16/13/3 15/15/3
f 18/17/4 20/20/4 19/18/4
f 22/20/2 24/17/2 23/19/2
f 26/21/6 28/59/6 27/22/6
f 30/24/1 32/27/1 31/25/1
f 32/26/2 36/28/2 35/20/2
f 36/27/3 34/24/3 33/16/3
f 34/28/4 30/26/4 29/17/4
f 35/29/5 33/21/5 29/23/5
f 32/30/6 30/23/6 34/21/6
f 38/31/1 40/35/1 39/32/1
f 40/33/2 44/36/2 43/34/2
f 44/35/3 42/31/3 41/25/3
f 42/36/4 38/33/4 37/17/4
f 43/37/5 41/39/5 37/30/5
f 40/38/6 38/30/6 42/39/6
f 46/31/1 48/35/1 47/32/1
f 48/36/2 52/41/2 51/40/2
f 52/35/3 50/31/3 49/25/3
f 50/41/4 46/36/4 45/34/4
f 51/42/5 49/43/5 45/39/5
f 48/37/6 46/39/6 50/43/6
f 54/35/1 56/60/1 55/44/1
f 58/36/4 54/33/4 53/17/4
f 59/45/5 57/37/5 53/38/5
f 62/47/1 64/49/1 63/35/1
f 64/48/2 68/50/2 67/36/2
f 68/49/3 66/47/3 65/31/3
f 66/50/4 62/48/4 61/33/4
f 67/37/5 65/39/5 61/30/5
f 64/38/6 62/30/6 66/39/6
f 70/27/1 72/53/1 71/51/1
f 72/4/2 76/54/2 75/52/2
f 76/53/3 74/27/3 73/47/3
f 74/54/4 70/4/4 69/6/4
f 75/55/5 73/58/5 69/56/5
f 72/57/6 70/56/6 74/58/6
f 78/14/1 80/15/1 79/13/1
f 82/31/1 83/32/1 81/25/1
f 84/36/2 87/40/2 83/34/2
f 88/35/3 85/25/3 87/32/3
f 86/41/4 81/34/4 85/40/4
f 87/42/5 81/39/5 83/37/5
f 84/37/6 86/43/6 88/42/6
f 82/31/1 84/35/1 83/32/1
f 84/36/2 88/41/2 87/40/2
f 88/35/3 86/31/3 85/25/3
f 86/41/4 82/36/4 81/34/4
f 87/42/5 85/43/5 81/39/5
f 84/37/6 82/39/6 86/43/6
f 90/31/1 91/32/1 89/25/1
f 92/36/2 95/40/2 91/34/2
f 96/35/3 93/25/3 95/32/3
f 94/41/4 89/34/4 93/40/4
f 95/42/5 89/39/5 91/37/5
f 92/37/6 94/43/6 96/42/6
f 90/31/1 92/35/1 91/32/1
f 92/36/2 96/41/2 95/40/2
f 96/35/3 94/31/3 93/25/3
f 94/41/4 90/36/4 89/34/4
f 95/42/5 93/43/5 89/39/5
f 92/37/6 90/39/6 94/43/6
f 98/31/1 99/32/1 97/25/1
f 100/36/2 103/40/2 99/34/2
f 104/35/3 101/25/3 103/32/3
f 102/41/4 97/34/4 101/40/4
f 103/42/5 97/39/5 99/37/5
f 100/37/6 102/43/6 104/42/6
f 98/31/1 100/35/1 99/32/1
f 100/36/2 104/41/2 103/40/2
f 104/35/3 102/31/3 101/25/3
f 102/41/4 98/36/4 97/34/4
f 103/42/5 101/43/5 97/39/5
f 100/37/6 98/39/6 102/43/6
f 56/33/2 59/34/2 55/17/2
f 60/60/3 57/32/3 59/44/3
f 56/46/6 58/37/6 60/45/6
f 56/33/2 60/36/2 59/34/2
f 60/60/3 58/35/3 57/32/3
f 56/46/6 54/38/6 58/37/6
