# Blender 4.1.1
# www.blender.org
mtllib stage.mtl
o 立方体.008
v 6.000003 4.000000 8.469998
v 6.000003 6.000000 8.469998
v 6.000003 4.000001 10.469998
v 6.000003 6.000001 10.469998
v 4.000003 4.000000 8.469999
v 4.000003 6.000000 8.469999
v 4.000003 4.000001 10.469999
v 4.000003 6.000001 10.469999
v 46.879990 -0.000002 -26.470013
v -46.880005 -0.000002 -26.469982
v 46.880005 0.000002 26.469986
v -46.879990 0.000002 26.470016
v 12.000009 0.000002 26.469997
v -11.999991 0.000002 26.470005
v 12.000009 24.000002 26.469995
v -11.999991 24.000002 26.470003
v 11.999991 -0.000002 -26.470001
v -12.000009 -0.000002 -26.469994
v 11.999991 23.999998 -26.470003
v -12.000009 23.999998 -26.469995
v 11.999993 -0.000002 -26.474758
v 12.000012 0.000002 26.474743
v 11.999991 23.999998 -26.474760
v 12.000010 24.000002 26.474741
v -12.000007 -0.000002 -26.474743
v -11.999988 0.000002 26.474758
v -12.000009 23.999998 -26.474745
v -11.999990 24.000002 26.474756
v 12.000006 0.000001 17.469995
v 12.000006 10.000001 17.469995
v 12.000009 0.000002 25.469995
v 12.000009 10.000002 25.469995
v -11.999994 0.000001 17.470003
v -11.999994 10.000001 17.470003
v -11.999991 0.000002 25.470003
v -11.999991 10.000002 25.470003
v 12.000005 0.000001 15.469995
v 12.000005 2.000001 15.469995
v 12.000006 0.000001 17.469995
v 12.000006 2.000001 17.469995
v 10.000005 0.000001 15.469996
v 10.000005 2.000001 15.469996
v 10.000006 0.000001 17.469995
v 10.000006 2.000001 17.469995
v 10.000005 0.000001 15.469996
v 10.000005 2.000001 15.469996
v 10.000006 0.000001 17.469995
v 10.000006 2.000001 17.469995
v 8.000005 0.000001 15.469996
v 8.000005 2.000001 15.469996
v 8.000006 0.000001 17.469997
v 8.000006 2.000001 17.469997
v 10.000005 2.000001 15.469996
v 10.000005 4.000001 15.469996
v 10.000006 2.000001 17.469995
v 10.000006 4.000001 17.469995
v 8.000005 2.000001 15.469996
v 8.000005 4.000001 15.469996
v 8.000006 2.000001 17.469997
v 8.000006 4.000001 17.469997
v 10.000003 4.000000 8.469997
v 10.000003 6.000000 8.469997
v 10.000004 4.000001 10.469997
v 10.000004 6.000001 10.469997
v 8.000003 4.000000 8.469997
v 8.000003 6.000000 8.469997
v 8.000004 4.000001 10.469997
v 8.000004 6.000001 10.469997
v 8.000003 4.000000 8.469997
v 8.000003 6.000000 8.469997
v 8.000004 4.000001 10.469997
v 8.000004 6.000001 10.469997
v 6.000003 4.000000 8.469998
v 6.000003 6.000000 8.469998
v 6.000003 4.000001 10.469998
v 6.000003 6.000001 10.469998
v -3.000000 4.000001 1.000000
v -3.000000 6.000001 1.000000
v -3.000000 4.000001 -1.000000
v -3.000000 6.000001 -1.000000
v -1.000000 4.000001 1.000000
v -1.000000 6.000001 1.000000
v -1.000000 4.000001 -1.000000
v -1.000000 6.000001 -1.000000
v -1.000000 0.000001 1.000000
v -1.000000 2.000001 1.000000
v -1.000000 0.000001 -1.000000
v -1.000000 2.000001 -1.000000
v 1.000000 0.000001 1.000000
v 1.000000 2.000001 1.000000
v 1.000000 0.000001 -1.000000
v 1.000000 2.000001 -1.000000
v -3.000000 0.000001 1.000000
v -3.000000 2.000001 1.000000
v -3.000000 0.000001 -1.000000
v -3.000000 2.000001 -1.000000
v -1.000000 0.000001 1.000000
v -1.000000 2.000001 1.000000
v -1.000000 0.000001 -1.000000
v -1.000000 2.000001 -1.000000
v -3.000000 0.000001 3.000000
v -3.000000 2.000001 3.000000
v -3.000000 0.000001 1.000000
v -3.000000 2.000001 1.000000
v -1.000000 0.000001 3.000000
v -1.000000 2.000001 3.000000
v -1.000000 0.000001 1.000000
v -1.000000 2.000001 1.000000
v -1.000000 0.000001 3.000000
v -1.000000 2.000001 3.000000
v -1.000000 0.000001 1.000000
v -1.000000 2.000001 1.000000
v 1.000000 0.000001 3.000000
v 1.000000 2.000001 3.000000
v 1.000000 0.000001 1.000000
v 1.000000 2.000001 1.000000
v -1.000000 2.000001 1.000000
v -1.000000 4.000001 1.000000
v -1.000000 2.000001 -1.000000
v -1.000000 4.000001 -1.000000
v 1.000000 2.000001 1.000000
v 1.000000 4.000001 1.000000
v 1.000000 2.000001 -1.000000
v 1.000000 4.000001 -1.000000
v -3.000000 2.000001 1.000000
v -3.000000 4.000001 1.000000
v -3.000000 2.000001 -1.000000
v -3.000000 4.000001 -1.000000
v -1.000000 2.000001 1.000000
v -1.000000 4.000001 1.000000
v -1.000000 2.000001 -1.000000
v -1.000000 4.000001 -1.000000
v -3.000000 2.000001 3.000000
v -3.000000 4.000001 3.000000
v -3.000000 2.000001 1.000000
v -3.000000 4.000001 1.000000
v -1.000000 2.000001 3.000000
v -1.000000 4.000001 3.000000
v -1.000000 2.000001 1.000000
v -1.000000 4.000001 1.000000
v -1.000000 2.000001 3.000000
v -1.000000 4.000001 3.000000
v -1.000000 2.000001 1.000000
v -1.000000 4.000001 1.000000
v 1.000000 2.000001 3.000000
v 1.000000 4.000001 3.000000
v 1.000000 2.000001 1.000000
v 1.000000 4.000001 1.000000
v -1.000000 4.000001 1.000000
v -1.000000 6.000001 1.000000
v -1.000000 4.000001 -1.000000
v -1.000000 6.000001 -1.000000
v 1.000000 4.000001 1.000000
v 1.000000 6.000001 1.000000
v 1.000000 4.000001 -1.000000
v 1.000000 6.000001 -1.000000
v -3.000000 4.000001 3.000000
v -3.000000 6.000001 3.000000
v -3.000000 4.000001 1.000000
v -3.000000 6.000001 1.000000
v -1.000000 4.000001 3.000000
v -1.000000 6.000001 3.000000
v -1.000000 4.000001 1.000000
v -1.000000 6.000001 1.000000
v -1.000000 4.000001 3.000000
v -1.000000 6.000001 3.000000
v -1.000000 4.000001 1.000000
v -1.000000 6.000001 1.000000
v 1.000000 4.000001 3.000000
v 1.000000 6.000001 3.000000
v 1.000000 4.000001 1.000000
v 1.000000 6.000001 1.000000
vn 1.0000 -0.0000 -0.0000
vn -0.0000 -0.0000 1.0000
vn -1.0000 -0.0000 -0.0000
vn -0.0000 -0.0000 -1.0000
vn -0.0000 -1.0000 -0.0000
vn -0.0000 1.0000 -0.0000
vt 0.625000 0.000000
vt 0.375000 0.250000
vt 0.375000 0.000000
vt 0.625000 0.250000
vt 0.375000 0.500000
vt 0.625000 0.500000
vt 0.375000 0.750000
vt 0.625000 0.750000
vt 0.375000 1.000000
vt 0.125000 0.750000
vt 0.125000 0.500000
vt 0.875000 0.500000
vt 1.000000 0.000000
vt 0.000000 1.000000
vt 0.000000 0.000000
vt 0.625000 1.000000
vt 0.875000 0.750000
vt 1.000000 1.000000
s 0
usemtl マテリアル.001
f 2/1/1 3/2/1 1/3/1
f 4/4/2 7/5/2 3/2/2
f 8/6/3 5/7/3 7/5/3
f 6/8/4 1/9/4 5/7/4
f 7/5/5 1/10/5 3/11/5
f 4/12/6 6/8/6 8/6/6
f 10/13/6 11/14/6 9/15/6
f 14/13/4 15/14/4 13/15/4
f 19/14/2 18/13/2 17/15/2
f 22/13/3 23/14/3 21/15/3
f 27/14/1 26/13/1 25/15/1
f 30/1/1 31/2/1 29/3/1
f 32/4/2 35/5/2 31/2/2
f 36/6/3 33/7/3 35/5/3
f 34/8/4 29/9/4 33/7/4
f 35/5/5 29/10/5 31/11/5
f 32/12/6 34/8/6 36/6/6
f 38/1/1 39/2/1 37/3/1
f 40/4/2 43/5/2 39/2/2
f 44/6/3 41/7/3 43/5/3
f 42/8/4 37/9/4 41/7/4
f 43/5/5 37/10/5 39/11/5
f 40/12/6 42/8/6 44/6/6
f 46/1/1 47/2/1 45/3/1
f 48/4/2 51/5/2 47/2/2
f 52/6/3 49/7/3 51/5/3
f 50/8/4 45/9/4 49/7/4
f 51/5/5 45/10/5 47/11/5
f 48/12/6 50/8/6 52/6/6
f 54/1/1 55/2/1 53/3/1
f 56/4/2 59/5/2 55/2/2
f 60/6/3 57/7/3 59/5/3
f 58/8/4 53/9/4 57/7/4
f 59/5/5 53/10/5 55/11/5
f 56/12/6 58/8/6 60/6/6
f 62/1/1 63/2/1 61/3/1
f 64/4/2 67/5/2 63/2/2
f 68/6/3 65/7/3 67/5/3
f 66/8/4 61/9/4 65/7/4
f 67/5/5 61/10/5 63/11/5
f 64/12/6 66/8/6 68/6/6
f 70/1/1 71/2/1 69/3/1
f 72/4/2 75/5/2 71/2/2
f 76/6/3 73/7/3 75/5/3
f 74/8/4 69/9/4 73/7/4
f 75/5/5 69/10/5 71/11/5
f 72/12/6 74/8/6 76/6/6
f 2/1/1 4/4/1 3/2/1
f 4/4/2 8/6/2 7/5/2
f 8/6/3 6/8/3 5/7/3
f 6/8/4 2/16/4 1/9/4
f 7/5/5 5/7/5 1/10/5
f 4/12/6 2/17/6 6/8/6
f 10/13/6 12/18/6 11/14/6
f 14/13/4 16/18/4 15/14/4
f 19/14/2 20/18/2 18/13/2
f 22/13/3 24/18/3 23/14/3
f 27/14/1 28/18/1 26/13/1
f 30/1/1 32/4/1 31/2/1
f 32/4/2 36/6/2 35/5/2
f 36/6/3 34/8/3 33/7/3
f 34/8/4 30/16/4 29/9/4
f 35/5/5 33/7/5 29/10/5
f 32/12/6 30/17/6 34/8/6
f 38/1/1 40/4/1 39/2/1
f 40/4/2 44/6/2 43/5/2
f 44/6/3 42/8/3 41/7/3
f 42/8/4 38/16/4 37/9/4
f 43/5/5 41/7/5 37/10/5
f 40/12/6 38/17/6 42/8/6
f 46/1/1 48/4/1 47/2/1
f 48/4/2 52/6/2 51/5/2
f 52/6/3 50/8/3 49/7/3
f 50/8/4 46/16/4 45/9/4
f 51/5/5 49/7/5 45/10/5
f 48/12/6 46/17/6 50/8/6
f 54/1/1 56/4/1 55/2/1
f 56/4/2 60/6/2 59/5/2
f 60/6/3 58/8/3 57/7/3
f 58/8/4 54/16/4 53/9/4
f 59/5/5 57/7/5 53/10/5
f 56/12/6 54/17/6 58/8/6
f 62/1/1 64/4/1 63/2/1
f 64/4/2 68/6/2 67/5/2
f 68/6/3 66/8/3 65/7/3
f 66/8/4 62/16/4 61/9/4
f 67/5/5 65/7/5 61/10/5
f 64/12/6 62/17/6 66/8/6
f 70/1/1 72/4/1 71/2/1
f 72/4/2 76/6/2 75/5/2
f 76/6/3 74/8/3 73/7/3
f 74/8/4 70/16/4 69/9/4
f 75/5/5 73/7/5 69/10/5
f 72/12/6 70/17/6 74/8/6
f 78/15/3 79/15/3 77/15/3
f 80/15/4 83/15/4 79/15/4
f 84/15/1 81/15/1 83/15/1
f 82/15/2 77/15/2 81/15/2
f 83/15/5 77/15/5 79/15/5
f 80/15/6 82/15/6 84/15/6
f 86/15/3 87/15/3 85/15/3
f 88/15/4 91/15/4 87/15/4
f 92/15/1 89/15/1 91/15/1
f 90/15/2 85/15/2 89/15/2
f 91/15/5 85/15/5 87/15/5
f 88/15/6 90/15/6 92/15/6
f 94/15/3 95/15/3 93/15/3
f 96/15/4 99/15/4 95/15/4
f 100/15/1 97/15/1 99/15/1
f 98/15/2 93/15/2 97/15/2
f 99/15/5 93/15/5 95/15/5
f 96/15/6 98/15/6 100/15/6
f 102/15/3 103/15/3 101/15/3
f 104/15/4 107/15/4 103/15/4
f 108/15/1 105/15/1 107/15/1
f 106/15/2 101/15/2 105/15/2
f 107/15/5 101/15/5 103/15/5
f 104/15/6 106/15/6 108/15/6
f 110/15/3 111/15/3 109/15/3
f 112/15/4 115/15/4 111/15/4
f 116/15/1 113/15/1 115/15/1
f 114/15/2 109/15/2 113/15/2
f 115/15/5 109/15/5 111/15/5
f 112/15/6 114/15/6 116/15/6
f 118/15/3 119/15/3 117/15/3
f 120/15/4 123/15/4 119/15/4
f 124/15/1 121/15/1 123/15/1
f 122/15/2 117/15/2 121/15/2
f 123/15/5 117/15/5 119/15/5
f 120/15/6 122/15/6 124/15/6
f 126/15/3 127/15/3 125/15/3
f 128/15/4 131/15/4 127/15/4
f 132/15/1 129/15/1 131/15/1
f 130/15/2 125/15/2 129/15/2
f 131/15/5 125/15/5 127/15/5
f 128/15/6 130/15/6 132/15/6
f 134/15/3 135/15/3 133/15/3
f 136/15/4 139/15/4 135/15/4
f 140/15/1 137/15/1 139/15/1
f 138/15/2 133/15/2 137/15/2
f 139/15/5 133/15/5 135/15/5
f 136/15/6 138/15/6 140/15/6
f 142/15/3 143/15/3 141/15/3
f 144/15/4 147/15/4 143/15/4
f 148/15/1 145/15/1 147/15/1
f 146/15/2 141/15/2 145/15/2
f 147/15/5 141/15/5 143/15/5
f 144/15/6 146/15/6 148/15/6
f 150/15/3 151/15/3 149/15/3
f 152/15/4 155/15/4 151/15/4
f 156/15/1 153/15/1 155/15/1
f 154/15/2 149/15/2 153/15/2
f 155/15/5 149/15/5 151/15/5
f 152/15/6 154/15/6 156/15/6
f 158/15/3 159/15/3 157/15/3
f 160/15/4 163/15/4 159/15/4
f 164/15/1 161/15/1 163/15/1
f 162/15/2 157/15/2 161/15/2
f 163/15/5 157/15/5 159/15/5
f 160/15/6 162/15/6 164/15/6
f 166/15/3 167/15/3 165/15/3
f 168/15/4 171/15/4 167/15/4
f 172/15/1 169/15/1 171/15/1
f 170/15/2 165/15/2 169/15/2
f 171/15/5 165/15/5 167/15/5
f 168/15/6 170/15/6 172/15/6
f 78/15/3 80/15/3 79/15/3
f 80/15/4 84/15/4 83/15/4
f 84/15/1 82/15/1 81/15/1
f 82/15/2 78/15/2 77/15/2
f 83/15/5 81/15/5 77/15/5
f 80/15/6 78/15/6 82/15/6
f 86/15/3 88/15/3 87/15/3
f 88/15/4 92/15/4 91/15/4
f 92/15/1 90/15/1 89/15/1
f 90/15/2 86/15/2 85/15/2
f 91/15/5 89/15/5 85/15/5
f 88/15/6 86/15/6 90/15/6
f 94/15/3 96/15/3 95/15/3
f 96/15/4 100/15/4 99/15/4
f 100/15/1 98/15/1 97/15/1
f 98/15/2 94/15/2 93/15/2
f 99/15/5 97/15/5 93/15/5
f 96/15/6 94/15/6 98/15/6
f 102/15/3 104/15/3 103/15/3
f 104/15/4 108/15/4 107/15/4
f 108/15/1 106/15/1 105/15/1
f 106/15/2 102/15/2 101/15/2
f 107/15/5 105/15/5 101/15/5
f 104/15/6 102/15/6 106/15/6
f 110/15/3 112/15/3 111/15/3
f 112/15/4 116/15/4 115/15/4
f 116/15/1 114/15/1 113/15/1
f 114/15/2 110/15/2 109/15/2
f 115/15/5 113/15/5 109/15/5
f 112/15/6 110/15/6 114/15/6
f 118/15/3 120/15/3 119/15/3
f 120/15/4 124/15/4 123/15/4
f 124/15/1 122/15/1 121/15/1
f 122/15/2 118/15/2 117/15/2
f 123/15/5 121/15/5 117/15/5
f 120/15/6 118/15/6 122/15/6
f 126/15/3 128/15/3 127/15/3
f 128/15/4 132/15/4 131/15/4
f 132/15/1 130/15/1 129/15/1
f 130/15/2 126/15/2 125/15/2
f 131/15/5 129/15/5 125/15/5
f 128/15/6 126/15/6 130/15/6
f 134/15/3 136/15/3 135/15/3
f 136/15/4 140/15/4 139/15/4
f 140/15/1 138/15/1 137/15/1
f 138/15/2 134/15/2 133/15/2
f 139/15/5 137/15/5 133/15/5
f 136/15/6 134/15/6 138/15/6
f 142/15/3 144/15/3 143/15/3
f 144/15/4 148/15/4 147/15/4
f 148/15/1 146/15/1 145/15/1
f 146/15/2 142/15/2 141/15/2
f 147/15/5 145/15/5 141/15/5
f 144/15/6 142/15/6 146/15/6
f 150/15/3 152/15/3 151/15/3
f 152/15/4 156/15/4 155/15/4
f 156/15/1 154/15/1 153/15/1
f 154/15/2 150/15/2 149/15/2
f 155/15/5 153/15/5 149/15/5
f 152/15/6 150/15/6 154/15/6
f 158/15/3 160/15/3 159/15/3
f 160/15/4 164/15/4 163/15/4
f 164/15/1 162/15/1 161/15/1
f 162/15/2 158/15/2 157/15/2
f 163/15/5 161/15/5 157/15/5
f 160/15/6 158/15/6 162/15/6
f 166/15/3 168/15/3 167/15/3
f 168/15/4 172/15/4 171/15/4
f 172/15/1 170/15/1 169/15/1
f 170/15/2 166/15/2 165/15/2
f 171/15/5 169/15/5 165/15/5
f 168/15/6 166/15/6 170/15/6
