# Blender 4.1.1
# www.blender.org
mtllib Col.mtl
o 立方体.012
v -11.999996 -5.999994 -6.529995
v -11.999996 2.000006 -6.529995
v -11.999996 -5.999994 -8.529995
v -11.999996 2.000006 -8.529995
v -5.999996 -5.999994 -6.529995
v -5.999996 2.000006 -6.529995
v -5.999996 -5.999994 -8.529995
v -5.999996 2.000006 -8.529995
v -40.000000 0.000003 40.000000
v 40.000000 0.000003 40.000000
v -40.000000 -0.000003 -40.000000
v 40.000000 -0.000003 -40.000000
v -12.000010 0.000002 26.475256
v -12.000012 -0.000006 -26.424746
v -12.000009 24.000002 26.475252
v -12.000011 23.999994 -26.424749
v -12.000018 -0.000006 -26.474800
v 11.999982 -0.000006 -26.474800
v -12.000018 23.999994 -26.474804
v 11.999982 23.999994 -26.474804
v 12.000004 0.000006 17.469997
v -11.999996 0.000006 17.470005
v 12.000004 10.000001 17.469995
v -11.999996 10.000001 17.470003
v 11.999974 -0.000006 -26.474760
v 12.000000 0.000002 26.525240
v 11.999973 23.999994 -26.474764
v 11.999999 24.000002 26.525236
v 4.000004 4.000002 10.469997
v 4.000004 6.000002 10.469997
v 4.000004 4.000001 8.469997
v 4.000004 6.000001 8.469997
v 10.000004 4.000002 10.469997
v 10.000004 6.000002 10.469997
v 10.000004 4.000001 8.469997
v 10.000004 6.000001 8.469997
v 10.000006 0.000002 17.469995
v 10.000006 2.000002 17.469995
v 10.000006 0.000002 15.469995
v 10.000006 2.000002 15.469995
v 12.000006 0.000002 17.469995
v 12.000006 2.000002 17.469995
v 12.000006 0.000002 15.469995
v 12.000006 2.000002 15.469995
v 8.000005 0.000002 17.469997
v 8.000005 2.000002 17.469997
v 8.000005 0.000002 15.469997
v 8.000005 2.000002 15.469997
v 10.000005 0.000002 17.469997
v 10.000005 2.000002 17.469997
v 10.000005 0.000002 15.469997
v 10.000005 2.000002 15.469997
v 8.000006 2.000002 17.469997
v 8.000006 4.000002 17.469997
v 8.000006 2.000002 15.469997
v 8.000006 4.000002 15.469997
v 10.000006 2.000002 17.469997
v 10.000006 4.000002 17.469997
v 10.000006 2.000002 15.469997
v 10.000006 4.000002 15.469997
v -11.999991 10.000004 25.470003
v 12.000009 10.000004 25.470003
v -11.999991 10.000003 17.470003
v 12.000009 10.000003 17.470003
v 12.000009 0.000004 26.469995
v -11.999991 0.000004 26.470003
v 12.000009 24.000004 26.469994
v -11.999991 24.000004 26.470001
v -1.000000 0.000001 1.000000
v -1.000000 2.000001 1.000000
v -1.000000 0.000001 -1.000000
v -1.000000 2.000001 -1.000000
v 1.000000 0.000001 1.000000
v 1.000000 2.000001 1.000000
v 1.000000 0.000001 -1.000000
v 1.000000 2.000001 -1.000000
v -3.000000 0.000001 1.000000
v -3.000000 2.000001 1.000000
v -3.000000 0.000001 -1.000000
v -3.000000 2.000001 -1.000000
v -1.000000 0.000001 1.000000
v -1.000000 2.000001 1.000000
v -1.000000 0.000001 -1.000000
v -1.000000 2.000001 -1.000000
v -3.000000 0.000001 3.000000
v -3.000000 2.000001 3.000000
v -3.000000 0.000001 1.000000
v -3.000000 2.000001 1.000000
v -1.000000 0.000001 3.000000
v -1.000000 2.000001 3.000000
v -1.000000 0.000001 1.000000
v -1.000000 2.000001 1.000000
v -1.000000 0.000001 3.000000
v -1.000000 2.000001 3.000000
v -1.000000 0.000001 1.000000
v -1.000000 2.000001 1.000000
v 1.000000 0.000001 3.000000
v 1.000000 2.000001 3.000000
v 1.000000 0.000001 1.000000
v 1.000000 2.000001 1.000000
v -1.000000 2.000001 1.000000
v -1.000000 4.000001 1.000000
v -1.000000 2.000001 -1.000000
v -1.000000 4.000001 -1.000000
v 1.000000 2.000001 1.000000
v 1.000000 4.000001 1.000000
v 1.000000 2.000001 -1.000000
v 1.000000 4.000001 -1.000000
v -3.000000 2.000001 1.000000
v -3.000000 4.000001 1.000000
v -3.000000 2.000001 -1.000000
v -3.000000 4.000001 -1.000000
v -1.000000 2.000001 1.000000
v -1.000000 4.000001 1.000000
v -1.000000 2.000001 -1.000000
v -1.000000 4.000001 -1.000000
v -3.000000 2.000001 3.000000
v -3.000000 4.000001 3.000000
v -3.000000 2.000001 1.000000
v -3.000000 4.000001 1.000000
v -1.000000 2.000001 3.000000
v -1.000000 4.000001 3.000000
v -1.000000 2.000001 1.000000
v -1.000000 4.000001 1.000000
v -1.000000 2.000001 3.000000
v -1.000000 4.000001 3.000000
v -1.000000 2.000001 1.000000
v -1.000000 4.000001 1.000000
v 1.000000 2.000001 3.000000
v 1.000000 4.000001 3.000000
v 1.000000 2.000001 1.000000
v 1.000000 4.000001 1.000000
v -1.000000 4.000001 1.000000
v -1.000000 6.000001 1.000000
v -1.000000 4.000001 -1.000000
v -1.000000 6.000001 -1.000000
v 1.000000 4.000001 1.000000
v 1.000000 6.000001 1.000000
v 1.000000 4.000001 -1.000000
v 1.000000 6.000001 -1.000000
v -3.000000 4.000001 1.000000
v -3.000000 6.000001 1.000000
v -3.000000 4.000001 -1.000000
v -3.000000 6.000001 -1.000000
v -1.000000 4.000001 1.000000
v -1.000000 6.000001 1.000000
v -1.000000 4.000001 -1.000000
v -1.000000 6.000001 -1.000000
v -3.000000 4.000001 3.000000
v -3.000000 6.000001 3.000000
v -3.000000 4.000001 1.000000
v -3.000000 6.000001 1.000000
v -1.000000 4.000001 3.000000
v -1.000000 6.000001 3.000000
v -1.000000 4.000001 1.000000
v -1.000000 6.000001 1.000000
v -1.000000 4.000001 3.000000
v -1.000000 6.000001 3.000000
v -1.000000 4.000001 1.000000
v -1.000000 6.000001 1.000000
v 1.000000 4.000001 3.000000
v 1.000000 6.000001 3.000000
v 1.000000 4.000001 1.000000
v 1.000000 6.000001 1.000000
v -11.999996 0.000006 17.470005
v -11.999996 8.000006 17.470005
v -11.999996 0.000006 15.470005
v -11.999996 8.000006 15.470005
v -5.999996 0.000006 17.470005
v -5.999996 8.000006 17.470005
v -5.999996 0.000006 15.470005
v -5.999996 8.000006 15.470005
v -11.999996 -0.499994 15.470005
v -11.999996 7.500006 15.470005
v -11.999996 -0.499994 13.470005
v -11.999996 7.500006 13.470005
v -5.999996 -0.499994 15.470005
v -5.999996 7.500006 15.470005
v -5.999996 -0.499994 13.470005
v -5.999996 7.500006 13.470005
v -11.999996 -0.999994 13.470005
v -11.999996 7.000006 13.470005
v -11.999996 -0.999994 11.470005
v -11.999996 7.000006 11.470005
v -5.999996 -0.999994 13.470005
v -5.999996 7.000006 13.470005
v -5.999996 -0.999994 11.470005
v -5.999996 7.000006 11.470005
v -11.999996 -1.499994 11.470005
v -11.999996 6.500006 11.470005
v -11.999996 -1.499994 9.470005
v -11.999996 6.500006 9.470005
v -5.999996 -1.499994 11.470005
v -5.999996 6.500006 11.470005
v -5.999996 -1.499994 9.470005
v -5.999996 6.500006 9.470005
v -11.999996 -1.999994 9.470005
v -11.999996 6.000006 9.470005
v -11.999996 -1.999994 7.470005
v -11.999996 6.000006 7.470005
v -5.999996 -1.999994 9.470005
v -5.999996 6.000006 9.470005
v -5.999996 -1.999994 7.470005
v -5.999996 6.000006 7.470005
v -11.999996 -2.499994 7.470005
v -11.999996 5.500006 7.470005
v -11.999996 -2.499994 5.470005
v -11.999996 5.500006 5.470005
v -5.999996 -2.499994 7.470005
v -5.999996 5.500006 7.470005
v -5.999996 -2.499994 5.470005
v -5.999996 5.500006 5.470005
v -11.999996 -2.999994 5.470005
v -11.999996 5.000006 5.470005
v -11.999996 -2.999994 3.470005
v -11.999996 5.000006 3.470005
v -5.999996 -2.999994 5.470005
v -5.999996 5.000006 5.470005
v -5.999996 -2.999994 3.470005
v -5.999996 5.000006 3.470005
v -11.999996 -3.499994 3.470005
v -11.999996 4.500006 3.470005
v -11.999996 -3.499994 1.470005
v -11.999996 4.500006 1.470005
v -5.999996 -3.499994 3.470005
v -5.999996 4.500006 3.470005
v -5.999996 -3.499994 1.470005
v -5.999996 4.500006 1.470005
v -11.999996 -3.999994 1.470005
v -11.999996 4.000006 1.470005
v -11.999996 -3.999994 -0.529995
v -11.999996 4.000006 -0.529995
v -5.999996 -3.999994 1.470005
v -5.999996 4.000006 1.470005
v -5.999996 -3.999994 -0.529995
v -5.999996 4.000006 -0.529995
v -11.999996 -4.499994 -0.529995
v -11.999996 3.500006 -0.529995
v -11.999996 -4.499994 -2.529995
v -11.999996 3.500006 -2.529995
v -5.999996 -4.499994 -0.529995
v -5.999996 3.500006 -0.529995
v -5.999996 -4.499994 -2.529995
v -5.999996 3.500006 -2.529995
v -11.999996 -4.999994 -2.529995
v -11.999996 3.000006 -2.529995
v -11.999996 -4.999994 -4.529995
v -11.999996 3.000006 -4.529995
v -5.999996 -4.999994 -2.529995
v -5.999996 3.000006 -2.529995
v -5.999996 -4.999994 -4.529995
v -5.999996 3.000006 -4.529995
v -11.999996 -5.499994 -4.529995
v -11.999996 2.500006 -4.529995
v -11.999996 -5.499994 -6.529995
v -11.999996 2.500006 -6.529995
v -5.999996 -5.499994 -4.529995
v -5.999996 2.500006 -4.529995
v -5.999996 -5.499994 -6.529995
v -5.999996 2.500006 -6.529995
v -11.999996 -6.499994 -8.529995
v -11.999996 1.500006 -8.529995
v -11.999996 -6.499994 -10.529995
v -11.999996 1.500006 -10.529995
v -5.999996 -6.499994 -8.529995
v -5.999996 1.500006 -8.529995
v -5.999996 -6.499994 -10.529995
v -5.999996 1.500006 -10.529995
v -11.999996 -6.999994 -10.529995
v -11.999996 1.000006 -10.529995
v -11.999996 -6.999994 -12.529995
v -11.999996 1.000006 -12.529995
v -5.999996 -6.999994 -10.529995
v -5.999996 1.000006 -10.529995
v -5.999996 -6.999994 -12.529995
v -5.999996 1.000006 -12.529995
v -11.999996 -7.499994 -12.529995
v -11.999996 0.500006 -12.529995
v -11.999996 -7.499994 -14.529995
v -11.999996 0.500006 -14.529995
v -5.999996 -7.499994 -12.529995
v -5.999996 0.500006 -12.529995
v -5.999996 -7.499994 -14.529995
v -5.999996 0.500006 -14.529995
vn -1.0000 -0.0000 -0.0000
vn -0.0000 -0.0000 -1.0000
vn 1.0000 -0.0000 -0.0000
vn -0.0000 -0.0000 1.0000
vn -0.0000 -1.0000 -0.0000
vn -0.0000 1.0000 -0.0000
vt 0.375000 0.000000
vt 0.625000 0.000000
vt 0.625000 0.250000
vt 0.375000 0.250000
vt 0.625000 0.500000
vt 0.375000 0.500000
vt 0.625000 0.750000
vt 0.375000 0.750000
vt 0.625000 1.000000
vt 0.375000 1.000000
vt 0.125000 0.500000
vt 0.125000 0.750000
vt 0.875000 0.500000
vt 0.875000 0.750000
vt 0.000000 0.000000
s 0
f 1/1/1 2/2/1 4/3/1 3/4/1
f 3/4/2 4/3/2 8/5/2 7/6/2
f 7/6/3 8/5/3 6/7/3 5/8/3
f 5/8/4 6/7/4 2/9/4 1/10/4
f 3/11/5 7/6/5 5/8/5 1/12/5
f 8/5/6 4/13/6 2/14/6 6/7/6
f 9/15/6 10/15/6 12/15/6 11/15/6
f 13/15/3 14/15/3 16/15/3 15/15/3
f 17/15/4 18/15/4 20/15/4 19/15/4
f 21/15/2 22/15/2 24/15/2 23/15/2
f 25/15/1 26/15/1 28/15/1 27/15/1
f 29/15/1 30/15/1 32/15/1 31/15/1
f 31/15/2 32/15/2 36/15/2 35/15/2
f 35/15/3 36/15/3 34/15/3 33/15/3
f 33/15/4 34/15/4 30/15/4 29/15/4
f 31/15/5 35/15/5 33/15/5 29/15/5
f 36/15/6 32/15/6 30/15/6 34/15/6
f 37/15/1 38/15/1 40/15/1 39/15/1
f 39/15/2 40/15/2 44/15/2 43/15/2
f 43/15/3 44/15/3 42/15/3 41/15/3
f 41/15/4 42/15/4 38/15/4 37/15/4
f 39/15/5 43/15/5 41/15/5 37/15/5
f 44/15/6 40/15/6 38/15/6 42/15/6
f 45/15/1 46/15/1 48/15/1 47/15/1
f 47/15/2 48/15/2 52/15/2 51/15/2
f 51/15/3 52/15/3 50/15/3 49/15/3
f 49/15/4 50/15/4 46/15/4 45/15/4
f 47/15/5 51/15/5 49/15/5 45/15/5
f 52/15/6 48/15/6 46/15/6 50/15/6
f 53/15/1 54/15/1 56/15/1 55/15/1
f 55/15/2 56/15/2 60/15/2 59/15/2
f 59/15/3 60/15/3 58/15/3 57/15/3
f 57/15/4 58/15/4 54/15/4 53/15/4
f 55/15/5 59/15/5 57/15/5 53/15/5
f 60/15/6 56/15/6 54/15/6 58/15/6
f 61/15/6 62/15/6 64/15/6 63/15/6
f 65/15/2 66/15/2 68/15/2 67/15/2
f 69/15/1 70/15/1 72/15/1 71/15/1
f 71/15/2 72/15/2 76/15/2 75/15/2
f 75/15/3 76/15/3 74/15/3 73/15/3
f 73/15/4 74/15/4 70/15/4 69/15/4
f 71/15/5 75/15/5 73/15/5 69/15/5
f 76/15/6 72/15/6 70/15/6 74/15/6
f 77/15/1 78/15/1 80/15/1 79/15/1
f 79/15/2 80/15/2 84/15/2 83/15/2
f 83/15/3 84/15/3 82/15/3 81/15/3
f 81/15/4 82/15/4 78/15/4 77/15/4
f 79/15/5 83/15/5 81/15/5 77/15/5
f 84/15/6 80/15/6 78/15/6 82/15/6
f 85/15/1 86/15/1 88/15/1 87/15/1
f 87/15/2 88/15/2 92/15/2 91/15/2
f 91/15/3 92/15/3 90/15/3 89/15/3
f 89/15/4 90/15/4 86/15/4 85/15/4
f 87/15/5 91/15/5 89/15/5 85/15/5
f 92/15/6 88/15/6 86/15/6 90/15/6
f 93/15/1 94/15/1 96/15/1 95/15/1
f 95/15/2 96/15/2 100/15/2 99/15/2
f 99/15/3 100/15/3 98/15/3 97/15/3
f 97/15/4 98/15/4 94/15/4 93/15/4
f 95/15/5 99/15/5 97/15/5 93/15/5
f 100/15/6 96/15/6 94/15/6 98/15/6
f 101/15/1 102/15/1 104/15/1 103/15/1
f 103/15/2 104/15/2 108/15/2 107/15/2
f 107/15/3 108/15/3 106/15/3 105/15/3
f 105/15/4 106/15/4 102/15/4 101/15/4
f 103/15/5 107/15/5 105/15/5 101/15/5
f 108/15/6 104/15/6 102/15/6 106/15/6
f 109/15/1 110/15/1 112/15/1 111/15/1
f 111/15/2 112/15/2 116/15/2 115/15/2
f 115/15/3 116/15/3 114/15/3 113/15/3
f 113/15/4 114/15/4 110/15/4 109/15/4
f 111/15/5 115/15/5 113/15/5 109/15/5
f 116/15/6 112/15/6 110/15/6 114/15/6
f 117/15/1 118/15/1 120/15/1 119/15/1
f 119/15/2 120/15/2 124/15/2 123/15/2
f 123/15/3 124/15/3 122/15/3 121/15/3
f 121/15/4 122/15/4 118/15/4 117/15/4
f 119/15/5 123/15/5 121/15/5 117/15/5
f 124/15/6 120/15/6 118/15/6 122/15/6
f 125/15/1 126/15/1 128/15/1 127/15/1
f 127/15/2 128/15/2 132/15/2 131/15/2
f 131/15/3 132/15/3 130/15/3 129/15/3
f 129/15/4 130/15/4 126/15/4 125/15/4
f 127/15/5 131/15/5 129/15/5 125/15/5
f 132/15/6 128/15/6 126/15/6 130/15/6
f 133/15/1 134/15/1 136/15/1 135/15/1
f 135/15/2 136/15/2 140/15/2 139/15/2
f 139/15/3 140/15/3 138/15/3 137/15/3
f 137/15/4 138/15/4 134/15/4 133/15/4
f 135/15/5 139/15/5 137/15/5 133/15/5
f 140/15/6 136/15/6 134/15/6 138/15/6
f 141/15/1 142/15/1 144/15/1 143/15/1
f 143/15/2 144/15/2 148/15/2 147/15/2
f 147/15/3 148/15/3 146/15/3 145/15/3
f 145/15/4 146/15/4 142/15/4 141/15/4
f 143/15/5 147/15/5 145/15/5 141/15/5
f 148/15/6 144/15/6 142/15/6 146/15/6
f 149/15/1 150/15/1 152/15/1 151/15/1
f 151/15/2 152/15/2 156/15/2 155/15/2
f 155/15/3 156/15/3 154/15/3 153/15/3
f 153/15/4 154/15/4 150/15/4 149/15/4
f 151/15/5 155/15/5 153/15/5 149/15/5
f 156/15/6 152/15/6 150/15/6 154/15/6
f 157/15/1 158/15/1 160/15/1 159/15/1
f 159/15/2 160/15/2 164/15/2 163/15/2
f 163/15/3 164/15/3 162/15/3 161/15/3
f 161/15/4 162/15/4 158/15/4 157/15/4
f 159/15/5 163/15/5 161/15/5 157/15/5
f 164/15/6 160/15/6 158/15/6 162/15/6
f 165/1/1 166/2/1 168/3/1 167/4/1
f 167/4/2 168/3/2 172/5/2 171/6/2
f 171/6/3 172/5/3 170/7/3 169/8/3
f 169/8/4 170/7/4 166/9/4 165/10/4
f 167/11/5 171/6/5 169/8/5 165/12/5
f 172/5/6 168/13/6 166/14/6 170/7/6
f 173/1/1 174/2/1 176/3/1 175/4/1
f 175/4/2 176/3/2 180/5/2 179/6/2
f 179/6/3 180/5/3 178/7/3 177/8/3
f 177/8/4 178/7/4 174/9/4 173/10/4
f 175/11/5 179/6/5 177/8/5 173/12/5
f 180/5/6 176/13/6 174/14/6 178/7/6
f 181/1/1 182/2/1 184/3/1 183/4/1
f 183/4/2 184/3/2 188/5/2 187/6/2
f 187/6/3 188/5/3 186/7/3 185/8/3
f 185/8/4 186/7/4 182/9/4 181/10/4
f 183/11/5 187/6/5 185/8/5 181/12/5
f 188/5/6 184/13/6 182/14/6 186/7/6
f 189/1/1 190/2/1 192/3/1 191/4/1
f 191/4/2 192/3/2 196/5/2 195/6/2
f 195/6/3 196/5/3 194/7/3 193/8/3
f 193/8/4 194/7/4 190/9/4 189/10/4
f 191/11/5 195/6/5 193/8/5 189/12/5
f 196/5/6 192/13/6 190/14/6 194/7/6
f 197/1/1 198/2/1 200/3/1 199/4/1
f 199/4/2 200/3/2 204/5/2 203/6/2
f 203/6/3 204/5/3 202/7/3 201/8/3
f 201/8/4 202/7/4 198/9/4 197/10/4
f 199/11/5 203/6/5 201/8/5 197/12/5
f 204/5/6 200/13/6 198/14/6 202/7/6
f 205/1/1 206/2/1 208/3/1 207/4/1
f 207/4/2 208/3/2 212/5/2 211/6/2
f 211/6/3 212/5/3 210/7/3 209/8/3
f 209/8/4 210/7/4 206/9/4 205/10/4
f 207/11/5 211/6/5 209/8/5 205/12/5
f 212/5/6 208/13/6 206/14/6 210/7/6
f 213/1/1 214/2/1 216/3/1 215/4/1
f 215/4/2 216/3/2 220/5/2 219/6/2
f 219/6/3 220/5/3 218/7/3 217/8/3
f 217/8/4 218/7/4 214/9/4 213/10/4
f 215/11/5 219/6/5 217/8/5 213/12/5
f 220/5/6 216/13/6 214/14/6 218/7/6
f 221/1/1 222/2/1 224/3/1 223/4/1
f 223/4/2 224/3/2 228/5/2 227/6/2
f 227/6/3 228/5/3 226/7/3 225/8/3
f 225/8/4 226/7/4 222/9/4 221/10/4
f 223/11/5 227/6/5 225/8/5 221/12/5
f 228/5/6 224/13/6 222/14/6 226/7/6
f 229/1/1 230/2/1 232/3/1 231/4/1
f 231/4/2 232/3/2 236/5/2 235/6/2
f 235/6/3 236/5/3 234/7/3 233/8/3
f 233/8/4 234/7/4 230/9/4 229/10/4
f 231/11/5 235/6/5 233/8/5 229/12/5
f 236/5/6 232/13/6 230/14/6 234/7/6
f 237/1/1 238/2/1 240/3/1 239/4/1
f 239/4/2 240/3/2 244/5/2 243/6/2
f 243/6/3 244/5/3 242/7/3 241/8/3
f 241/8/4 242/7/4 238/9/4 237/10/4
f 239/11/5 243/6/5 241/8/5 237/12/5
f 244/5/6 240/13/6 238/14/6 242/7/6
f 245/1/1 246/2/1 248/3/1 247/4/1
f 247/4/2 248/3/2 252/5/2 251/6/2
f 251/6/3 252/5/3 250/7/3 249/8/3
f 249/8/4 250/7/4 246/9/4 245/10/4
f 247/11/5 251/6/5 249/8/5 245/12/5
f 252/5/6 248/13/6 246/14/6 250/7/6
f 253/1/1 254/2/1 256/3/1 255/4/1
f 255/4/2 256/3/2 260/5/2 259/6/2
f 259/6/3 260/5/3 258/7/3 257/8/3
f 257/8/4 258/7/4 254/9/4 253/10/4
f 255/11/5 259/6/5 257/8/5 253/12/5
f 260/5/6 256/13/6 254/14/6 258/7/6
f 261/1/1 262/2/1 264/3/1 263/4/1
f 263/4/2 264/3/2 268/5/2 267/6/2
f 267/6/3 268/5/3 266/7/3 265/8/3
f 265/8/4 266/7/4 262/9/4 261/10/4
f 263/11/5 267/6/5 265/8/5 261/12/5
f 268/5/6 264/13/6 262/14/6 266/7/6
f 269/1/1 270/2/1 272/3/1 271/4/1
f 271/4/2 272/3/2 276/5/2 275/6/2
f 275/6/3 276/5/3 274/7/3 273/8/3
f 273/8/4 274/7/4 270/9/4 269/10/4
f 271/11/5 275/6/5 273/8/5 269/12/5
f 276/5/6 272/13/6 270/14/6 274/7/6
f 277/1/1 278/2/1 280/3/1 279/4/1
f 279/4/2 280/3/2 284/5/2 283/6/2
f 283/6/3 284/5/3 282/7/3 281/8/3
f 281/8/4 282/7/4 278/9/4 277/10/4
f 279/11/5 283/6/5 281/8/5 277/12/5
f 284/5/6 280/13/6 278/14/6 282/7/6
