# Blender 4.4.1
# www.blender.org
mtllib stage4Collison.mtl
o 平面
v -15.500000 0.000000 11.400000
v 13.500000 0.000000 11.400000
v -15.500000 0.000000 -10.600000
v 13.500000 0.000000 -10.600000
v -15.000001 0.000000 7.500000
v -15.000001 2.000000 7.500000
v -15.000001 0.000000 3.500000
v -15.000001 2.000000 3.500000
v -11.000000 0.000000 7.500000
v -11.000000 2.000000 7.500000
v -11.000000 0.000000 3.500000
v -11.000000 2.000000 3.500000
v -15.000001 0.000000 11.500000
v -15.000001 4.000000 11.500000
v -15.000001 0.000000 7.500000
v -15.000001 4.000000 7.500000
v -11.000000 0.000000 11.500000
v -11.000000 4.000000 11.500000
v -11.000000 0.000000 7.500000
v -11.000000 4.000000 7.500000
v -6.500000 0.000000 11.500000
v -6.500000 6.000000 11.500000
v -6.500000 0.000000 7.500000
v -6.500000 6.000000 7.500000
v -2.500000 0.000000 11.500000
v -2.500000 6.000000 11.500000
v -2.500000 0.000000 7.500000
v -2.500000 6.000000 7.500000
v 9.500000 0.000000 11.500000
v 9.500000 10.000000 11.500000
v 9.500000 0.000000 7.500000
v 9.500000 10.000000 7.500000
v 13.500000 0.000000 11.500000
v 13.500000 10.000000 11.500000
v 13.500000 0.000000 7.500000
v 13.500000 10.000000 7.500000
v 1.500000 0.000000 11.500000
v 1.500000 8.000000 11.500000
v 1.500000 0.000000 7.500000
v 1.500000 8.000000 7.500000
v 5.500000 0.000000 11.500000
v 5.500000 8.000000 11.500000
v 5.500000 0.000000 7.500000
v 5.500000 8.000000 7.500000
v 9.500000 0.000000 3.500000
v 9.500000 10.000000 3.500000
v 9.500000 0.000000 -0.500000
v 9.500000 10.000000 -0.500000
v 13.500000 0.000000 3.500000
v 13.500000 10.000000 3.500000
v 13.500000 0.000000 -0.500000
v 13.500000 10.000000 -0.500000
v -6.500000 10.000000 -7.500000
v 1.500000 10.000000 -7.500000
v -6.500000 10.000000 -15.500001
v 1.500000 10.000000 -15.500001
v -15.000001 10.000000 -7.500000
v -15.000001 14.000001 -7.500000
v -15.000001 10.000000 -11.500001
v -15.000001 14.000001 -11.500001
v -11.000000 10.000000 -7.500000
v -11.000000 14.000001 -7.500000
v -11.000000 10.000000 -11.500001
v -11.000000 14.000001 -11.500001
v -6.500000 10.000000 -7.500000
v -6.500000 12.000000 -7.500000
v -6.500000 10.000000 -11.500001
v -6.500000 12.000000 -11.500001
v -2.500000 10.000000 -7.500000
v -2.500000 12.000000 -7.500000
v -2.500000 10.000000 -11.500001
v -2.500000 12.000000 -11.500001
v -15.000001 11.999999 -1.000000
v -15.000001 16.000000 -1.000000
v -15.000001 11.999999 -5.000000
v -15.000001 16.000000 -5.000000
v -11.000000 11.999999 -1.000000
v -11.000000 16.000000 -1.000000
v -11.000000 11.999999 -5.000000
v -11.000000 16.000000 -5.000000
v -15.000001 14.499999 6.000000
v -15.000001 18.500000 6.000000
v -15.000001 14.499999 2.000000
v -15.000001 18.500000 2.000000
v -11.000000 14.499999 6.000000
v -11.000000 18.500000 6.000000
v -11.000000 14.499999 2.000000
v -11.000000 18.500000 2.000000
v -7.500000 15.500000 6.000000
v -7.500000 19.500000 6.000000
v -7.500000 15.500000 2.000000
v -7.500000 19.500000 2.000000
v -3.500000 15.500000 6.000000
v -3.500000 19.500000 6.000000
v -3.500000 15.500000 2.000000
v -3.500000 19.500000 2.000000
v -0.000000 16.500000 6.000000
v -0.000000 20.500000 6.000000
v -0.000000 16.500000 2.000000
v -0.000000 20.500000 2.000000
v 4.000000 16.500000 6.000000
v 4.000000 20.500000 6.000000
v 4.000000 16.500000 2.000000
v 4.000000 20.500000 2.000000
v 3.298539 17.500000 -0.500000
v 3.298539 21.500000 -0.500000
v 3.298539 17.500000 -4.500000
v 3.298539 21.500000 -4.500000
v 7.298538 17.500000 -0.500000
v 7.298538 21.500000 -0.500000
v 7.298538 17.500000 -4.500000
v 7.298538 21.500000 -4.500000
v -6.000000 19.500000 -2.300000
v -6.000000 23.500002 -2.300000
v -6.000000 19.500000 -6.300000
v -6.000000 23.500002 -6.300000
v 0.000000 19.500000 -2.300000
v 0.000000 23.500002 -2.300000
v 0.000000 19.500000 -6.300000
v 0.000000 23.500002 -6.300000
v -7.500000 15.500000 14.000000
v -7.500000 19.500000 14.000000
v -7.500000 15.500000 10.000000
v -7.500000 19.500000 10.000000
v -3.500000 15.500000 14.000000
v -3.500000 19.500000 14.000000
v -3.500000 15.500000 10.000000
v -3.500000 19.500000 10.000000
v -7.500000 15.500000 22.000000
v -7.500000 19.500000 22.000000
v -7.500000 15.500000 18.000002
v -7.500000 19.500000 18.000002
v -3.500000 15.500000 22.000000
v -3.500000 19.500000 22.000000
v -3.500000 15.500000 18.000002
v -3.500000 19.500000 18.000002
v 1.500000 15.500000 22.000000
v 1.500000 19.500000 22.000000
v 1.500000 15.500000 18.000002
v 1.500000 19.500000 18.000002
v 5.500000 15.500000 22.000000
v 5.500000 19.500000 22.000000
v 5.500000 15.500000 18.000002
v 5.500000 19.500000 18.000002
vn -0.0000 1.0000 -0.0000
vn -1.0000 -0.0000 -0.0000
vn -0.0000 -0.0000 -1.0000
vn 1.0000 -0.0000 -0.0000
vn -0.0000 -0.0000 1.0000
vn -0.0000 -1.0000 -0.0000
vt 0.000000 0.000000
vt 1.000000 0.000000
vt 1.000000 1.000000
vt 0.000000 1.000000
vt 0.375000 0.000000
vt 0.625000 0.000000
vt 0.625000 0.250000
vt 0.375000 0.250000
vt 0.625000 0.500000
vt 0.375000 0.500000
vt 0.625000 0.750000
vt 0.375000 0.750000
vt 0.625000 1.000000
vt 0.375000 1.000000
vt 0.125000 0.500000
vt 0.125000 0.750000
vt 0.875000 0.500000
vt 0.875000 0.750000
s 0
usemtl マテリアル
f 1/1/1 2/2/1 4/3/1 3/4/1
f 5/5/2 6/6/2 8/7/2 7/8/2
f 7/8/3 8/7/3 12/9/3 11/10/3
f 11/10/4 12/9/4 10/11/4 9/12/4
f 9/12/5 10/11/5 6/13/5 5/14/5
f 7/15/6 11/10/6 9/12/6 5/16/6
f 12/9/1 8/17/1 6/18/1 10/11/1
f 13/5/2 14/6/2 16/7/2 15/8/2
f 15/8/3 16/7/3 20/9/3 19/10/3
f 19/10/4 20/9/4 18/11/4 17/12/4
f 17/12/5 18/11/5 14/13/5 13/14/5
f 15/15/6 19/10/6 17/12/6 13/16/6
f 20/9/1 16/17/1 14/18/1 18/11/1
f 21/5/2 22/6/2 24/7/2 23/8/2
f 23/8/3 24/7/3 28/9/3 27/10/3
f 27/10/4 28/9/4 26/11/4 25/12/4
f 25/12/5 26/11/5 22/13/5 21/14/5
f 23/15/6 27/10/6 25/12/6 21/16/6
f 28/9/1 24/17/1 22/18/1 26/11/1
f 29/5/2 30/6/2 32/7/2 31/8/2
f 31/8/3 32/7/3 36/9/3 35/10/3
f 35/10/4 36/9/4 34/11/4 33/12/4
f 33/12/5 34/11/5 30/13/5 29/14/5
f 31/15/6 35/10/6 33/12/6 29/16/6
f 36/9/1 32/17/1 30/18/1 34/11/1
f 37/5/2 38/6/2 40/7/2 39/8/2
f 39/8/3 40/7/3 44/9/3 43/10/3
f 43/10/4 44/9/4 42/11/4 41/12/4
f 41/12/5 42/11/5 38/13/5 37/14/5
f 39/15/6 43/10/6 41/12/6 37/16/6
f 44/9/1 40/17/1 38/18/1 42/11/1
f 45/5/2 46/6/2 48/7/2 47/8/2
f 47/8/3 48/7/3 52/9/3 51/10/3
f 51/10/4 52/9/4 50/11/4 49/12/4
f 49/12/5 50/11/5 46/13/5 45/14/5
f 47/15/6 51/10/6 49/12/6 45/16/6
f 52/9/1 48/17/1 46/18/1 50/11/1
f 53/1/1 54/2/1 56/3/1 55/4/1
f 57/5/2 58/6/2 60/7/2 59/8/2
f 59/8/3 60/7/3 64/9/3 63/10/3
f 63/10/4 64/9/4 62/11/4 61/12/4
f 61/12/5 62/11/5 58/13/5 57/14/5
f 59/15/6 63/10/6 61/12/6 57/16/6
f 64/9/1 60/17/1 58/18/1 62/11/1
f 65/5/2 66/6/2 68/7/2 67/8/2
f 67/8/3 68/7/3 72/9/3 71/10/3
f 71/10/4 72/9/4 70/11/4 69/12/4
f 69/12/5 70/11/5 66/13/5 65/14/5
f 67/15/6 71/10/6 69/12/6 65/16/6
f 72/9/1 68/17/1 66/18/1 70/11/1
f 73/5/2 74/6/2 76/7/2 75/8/2
f 75/8/3 76/7/3 80/9/3 79/10/3
f 79/10/4 80/9/4 78/11/4 77/12/4
f 77/12/5 78/11/5 74/13/5 73/14/5
f 75/15/6 79/10/6 77/12/6 73/16/6
f 80/9/1 76/17/1 74/18/1 78/11/1
f 81/5/2 82/6/2 84/7/2 83/8/2
f 83/8/3 84/7/3 88/9/3 87/10/3
f 87/10/4 88/9/4 86/11/4 85/12/4
f 85/12/5 86/11/5 82/13/5 81/14/5
f 83/15/6 87/10/6 85/12/6 81/16/6
f 88/9/1 84/17/1 82/18/1 86/11/1
f 89/5/2 90/6/2 92/7/2 91/8/2
f 91/8/3 92/7/3 96/9/3 95/10/3
f 95/10/4 96/9/4 94/11/4 93/12/4
f 93/12/5 94/11/5 90/13/5 89/14/5
f 91/15/6 95/10/6 93/12/6 89/16/6
f 96/9/1 92/17/1 90/18/1 94/11/1
f 97/5/2 98/6/2 100/7/2 99/8/2
f 99/8/3 100/7/3 104/9/3 103/10/3
f 103/10/4 104/9/4 102/11/4 101/12/4
f 101/12/5 102/11/5 98/13/5 97/14/5
f 99/15/6 103/10/6 101/12/6 97/16/6
f 104/9/1 100/17/1 98/18/1 102/11/1
f 105/5/2 106/6/2 108/7/2 107/8/2
f 107/8/3 108/7/3 112/9/3 111/10/3
f 111/10/4 112/9/4 110/11/4 109/12/4
f 109/12/5 110/11/5 106/13/5 105/14/5
f 107/15/6 111/10/6 109/12/6 105/16/6
f 112/9/1 108/17/1 106/18/1 110/11/1
f 113/5/2 114/6/2 116/7/2 115/8/2
f 115/8/3 116/7/3 120/9/3 119/10/3
f 119/10/4 120/9/4 118/11/4 117/12/4
f 117/12/5 118/11/5 114/13/5 113/14/5
f 115/15/6 119/10/6 117/12/6 113/16/6
f 120/9/1 116/17/1 114/18/1 118/11/1
f 121/5/2 122/6/2 124/7/2 123/8/2
f 123/8/3 124/7/3 128/9/3 127/10/3
f 127/10/4 128/9/4 126/11/4 125/12/4
f 125/12/5 126/11/5 122/13/5 121/14/5
f 123/15/6 127/10/6 125/12/6 121/16/6
f 128/9/1 124/17/1 122/18/1 126/11/1
f 129/5/2 130/6/2 132/7/2 131/8/2
f 131/8/3 132/7/3 136/9/3 135/10/3
f 135/10/4 136/9/4 134/11/4 133/12/4
f 133/12/5 134/11/5 130/13/5 129/14/5
f 131/15/6 135/10/6 133/12/6 129/16/6
f 136/9/1 132/17/1 130/18/1 134/11/1
f 137/5/2 138/6/2 140/7/2 139/8/2
f 139/8/3 140/7/3 144/9/3 143/10/3
f 143/10/4 144/9/4 142/11/4 141/12/4
f 141/12/5 142/11/5 138/13/5 137/14/5
f 139/15/6 143/10/6 141/12/6 137/16/6
f 144/9/1 140/17/1 138/18/1 142/11/1
