# Blender 4.4.1
# www.blender.org
mtllib stage4Collison.mtl
o 平面
v -14.642113 0.000000 11.801799
v 13.742113 0.000000 11.801799
v -14.642113 0.000000 -11.248321
v 13.742113 0.000000 -11.248321
v 42.999996 6.000000 20.500000
v 42.999996 9.999999 20.500000
v 42.999996 6.000000 14.499999
v 42.999996 9.999999 14.499999
v 48.999996 6.000000 20.500000
v 48.999996 9.999999 20.500000
v 48.999996 6.000000 14.499999
v 48.999996 9.999999 14.499999
v -15.000003 0.000000 7.499999
v -15.000003 2.000000 7.499999
v -15.000003 0.000000 3.499998
v -15.000003 2.000000 3.499998
v -11.000005 0.000000 7.499999
v -11.000005 2.000000 7.499999
v -11.000005 0.000000 3.499998
v -11.000005 2.000000 3.499998
v -15.000003 0.000000 11.499999
v -15.000003 4.000000 11.499999
v -15.000003 0.000000 7.499999
v -15.000003 4.000000 7.499999
v -11.000005 0.000000 11.499999
v -11.000005 4.000000 11.499999
v -11.000005 0.000000 7.499999
v -11.000005 4.000000 7.499999
v -6.500003 0.000000 11.499999
v -6.500003 6.000000 11.499999
v -6.500003 0.000000 7.499999
v -6.500003 6.000000 7.499999
v -2.499999 0.000000 11.499999
v -2.499999 6.000000 11.499999
v -2.499999 0.000000 7.499999
v -2.499999 6.000000 7.499999
v 9.500001 0.000000 11.499999
v 9.500001 9.999999 11.499999
v 9.500001 0.000000 7.499999
v 9.500001 9.999999 7.499999
v 13.499998 0.000000 11.499999
v 13.499998 9.999999 11.499999
v 13.499998 0.000000 7.499999
v 13.499998 9.999999 7.499999
v 1.499999 0.000000 11.499999
v 1.499999 8.000000 11.499999
v 1.499999 0.000000 7.499999
v 1.499999 8.000000 7.499999
v 5.499996 0.000000 11.499999
v 5.499996 8.000000 11.499999
v 5.499996 0.000000 7.499999
v 5.499996 8.000000 7.499999
v 9.500001 0.000000 3.499999
v 9.500001 9.999999 3.499999
v 9.500001 0.000000 -0.500001
v 9.500001 9.999999 -0.500001
v 13.499998 0.000000 3.499999
v 13.499998 9.999999 3.499999
v 13.499998 0.000000 -0.500001
v 13.499998 9.999999 -0.500001
v -6.500003 9.999999 -7.500003
v 1.499999 9.999999 -7.500003
v -6.500003 9.999999 -15.499997
v 1.499999 9.999999 -15.499997
v -15.000003 9.999999 -7.500003
v -15.000003 14.000001 -7.500003
v -15.000003 9.999999 -11.500005
v -15.000003 14.000001 -11.500005
v -11.000005 9.999999 -7.500003
v -11.000005 14.000001 -7.500003
v -11.000005 9.999999 -11.500005
v -11.000005 14.000001 -11.500005
v -6.500003 9.999999 -7.500003
v -6.500003 12.000000 -7.500003
v -6.500003 9.999999 -11.500005
v -6.500003 12.000000 -11.500005
v -2.499999 9.999999 -7.500003
v -2.499999 12.000000 -7.500003
v -2.499999 9.999999 -11.500005
v -2.499999 12.000000 -11.500005
v -15.000003 11.999998 -1.000001
v -15.000003 15.999999 -1.000001
v -15.000003 11.999998 -5.000001
v -15.000003 15.999999 -5.000001
v -11.000005 11.999998 -1.000001
v -11.000005 15.999999 -1.000001
v -11.000005 11.999998 -5.000001
v -11.000005 15.999999 -5.000001
v -15.000003 14.499998 5.999999
v -15.000003 18.499998 5.999999
v -15.000003 14.499998 1.999998
v -15.000003 18.499998 1.999998
v -11.000005 14.499998 5.999999
v -11.000005 18.499998 5.999999
v -11.000005 14.499998 1.999998
v -11.000005 18.499998 1.999998
v -7.499998 15.499999 5.999999
v -7.499998 19.499998 5.999999
v -7.499998 15.499999 1.999998
v -7.499998 19.499998 1.999998
v -3.500000 15.499999 5.999999
v -3.500000 19.499998 5.999999
v -3.500000 15.499999 1.999998
v -3.500000 19.499998 1.999998
v 0.000000 16.500000 5.999999
v 0.000000 20.499998 5.999999
v 0.000000 16.500000 1.999998
v 0.000000 20.499998 1.999998
v 3.999998 16.500000 5.999999
v 3.999998 20.499998 5.999999
v 3.999998 16.500000 1.999998
v 3.999998 20.499998 1.999998
v 3.298537 17.500000 -0.500001
v 3.298537 21.499998 -0.500001
v 3.298537 17.500000 -4.500001
v 3.298537 21.499998 -4.500001
v 7.298539 17.500000 -0.500001
v 7.298539 21.499998 -0.500001
v 7.298539 17.500000 -4.500001
v 7.298539 21.499998 -4.500001
v -6.000000 19.499998 -2.300002
v -6.000000 23.500002 -2.300002
v -6.000000 19.499998 -6.300000
v -6.000000 23.500002 -6.300000
v 0.000000 19.499998 -2.300002
v 0.000000 23.500002 -2.300002
v 0.000000 19.499998 -6.300000
v 0.000000 23.500002 -6.300000
v -7.499998 15.499999 14.000000
v -7.499998 19.499998 14.000000
v -7.499998 15.499999 9.999999
v -7.499998 19.499998 9.999999
v -3.500000 15.499999 14.000000
v -3.500000 19.499998 14.000000
v -3.500000 15.499999 9.999999
v -3.500000 19.499998 9.999999
v -7.499998 15.499999 22.000000
v -7.499998 19.499998 22.000000
v -7.499998 15.499999 18.000002
v -7.499998 19.499998 18.000002
v -3.500000 15.499999 22.000000
v -3.500000 19.499998 22.000000
v -3.500000 15.499999 18.000002
v -3.500000 19.499998 18.000002
v 1.499999 15.499999 22.000000
v 1.499999 19.499998 22.000000
v 1.499999 15.499999 18.000002
v 1.499999 19.499998 18.000002
v 5.499996 15.499999 22.000000
v 5.499996 19.499998 22.000000
v 5.499996 15.499999 18.000002
v 5.499996 19.499998 18.000002
v 17.999998 6.000000 11.499999
v 17.999998 9.999999 11.499999
v 17.999998 6.000000 7.499999
v 17.999998 9.999999 7.499999
v 21.999998 6.000000 11.499999
v 21.999998 9.999999 11.499999
v 21.999998 6.000000 7.499999
v 21.999998 9.999999 7.499999
v 33.999996 6.000000 11.499999
v 33.999996 9.999999 11.499999
v 33.999996 6.000000 7.499999
v 33.999996 9.999999 7.499999
v 37.999996 6.000000 11.499999
v 37.999996 9.999999 11.499999
v 37.999996 6.000000 7.499999
v 37.999996 9.999999 7.499999
v 26.000000 6.000000 20.000000
v 26.000000 9.999999 20.000000
v 26.000000 6.000000 15.999998
v 26.000000 9.999999 15.999998
v 29.999998 6.000000 20.000000
v 29.999998 9.999999 20.000000
v 29.999998 6.000000 15.999998
v 29.999998 9.999999 15.999998
vn -0.0000 1.0000 -0.0000
vn -1.0000 -0.0000 -0.0000
vn -0.0000 -0.0000 -1.0000
vn 1.0000 -0.0000 -0.0000
vn -0.0000 -0.0000 1.0000
vn -0.0000 -1.0000 -0.0000
vt 0.000000 0.000000
vt 1.000000 0.000000
vt 1.000000 1.000000
vt 0.000000 1.000000
vt 0.375000 0.000000
vt 0.625000 0.000000
vt 0.625000 0.250000
vt 0.375000 0.250000
vt 0.625000 0.500000
vt 0.375000 0.500000
vt 0.625000 0.750000
vt 0.375000 0.750000
vt 0.625000 1.000000
vt 0.375000 1.000000
vt 0.125000 0.500000
vt 0.125000 0.750000
vt 0.875000 0.500000
vt 0.875000 0.750000
s 0
usemtl マテリアル.003
f 1/1/1 2/2/1 4/3/1 3/4/1
usemtl マテリアル.010
f 5/5/2 6/6/2 8/7/2 7/8/2
f 7/8/3 8/7/3 12/9/3 11/10/3
f 11/10/4 12/9/4 10/11/4 9/12/4
f 9/12/5 10/11/5 6/13/5 5/14/5
f 7/15/6 11/10/6 9/12/6 5/16/6
f 12/9/1 8/17/1 6/18/1 10/11/1
f 13/5/2 14/6/2 16/7/2 15/8/2
f 15/8/3 16/7/3 20/9/3 19/10/3
f 19/10/4 20/9/4 18/11/4 17/12/4
f 17/12/5 18/11/5 14/13/5 13/14/5
f 15/15/6 19/10/6 17/12/6 13/16/6
f 20/9/1 16/17/1 14/18/1 18/11/1
f 21/5/2 22/6/2 24/7/2 23/8/2
f 23/8/3 24/7/3 28/9/3 27/10/3
f 27/10/4 28/9/4 26/11/4 25/12/4
f 25/12/5 26/11/5 22/13/5 21/14/5
f 23/15/6 27/10/6 25/12/6 21/16/6
f 28/9/1 24/17/1 22/18/1 26/11/1
f 29/5/2 30/6/2 32/7/2 31/8/2
f 31/8/3 32/7/3 36/9/3 35/10/3
f 35/10/4 36/9/4 34/11/4 33/12/4
f 33/12/5 34/11/5 30/13/5 29/14/5
f 31/15/6 35/10/6 33/12/6 29/16/6
f 36/9/1 32/17/1 30/18/1 34/11/1
f 37/5/2 38/6/2 40/7/2 39/8/2
f 39/8/3 40/7/3 44/9/3 43/10/3
f 43/10/4 44/9/4 42/11/4 41/12/4
f 41/12/5 42/11/5 38/13/5 37/14/5
f 39/15/6 43/10/6 41/12/6 37/16/6
f 44/9/1 40/17/1 38/18/1 42/11/1
f 45/5/2 46/6/2 48/7/2 47/8/2
f 47/8/3 48/7/3 52/9/3 51/10/3
f 51/10/4 52/9/4 50/11/4 49/12/4
f 49/12/5 50/11/5 46/13/5 45/14/5
f 47/15/6 51/10/6 49/12/6 45/16/6
f 52/9/1 48/17/1 46/18/1 50/11/1
f 53/5/2 54/6/2 56/7/2 55/8/2
f 55/8/3 56/7/3 60/9/3 59/10/3
f 59/10/4 60/9/4 58/11/4 57/12/4
f 57/12/5 58/11/5 54/13/5 53/14/5
f 55/15/6 59/10/6 57/12/6 53/16/6
f 60/9/1 56/17/1 54/18/1 58/11/1
f 61/1/1 62/2/1 64/3/1 63/4/1
f 65/5/2 66/6/2 68/7/2 67/8/2
f 67/8/3 68/7/3 72/9/3 71/10/3
f 71/10/4 72/9/4 70/11/4 69/12/4
f 69/12/5 70/11/5 66/13/5 65/14/5
f 67/15/6 71/10/6 69/12/6 65/16/6
f 72/9/1 68/17/1 66/18/1 70/11/1
f 73/5/2 74/6/2 76/7/2 75/8/2
f 75/8/3 76/7/3 80/9/3 79/10/3
f 79/10/4 80/9/4 78/11/4 77/12/4
f 77/12/5 78/11/5 74/13/5 73/14/5
f 75/15/6 79/10/6 77/12/6 73/16/6
f 80/9/1 76/17/1 74/18/1 78/11/1
f 81/5/2 82/6/2 84/7/2 83/8/2
f 83/8/3 84/7/3 88/9/3 87/10/3
f 87/10/4 88/9/4 86/11/4 85/12/4
f 85/12/5 86/11/5 82/13/5 81/14/5
f 83/15/6 87/10/6 85/12/6 81/16/6
f 88/9/1 84/17/1 82/18/1 86/11/1
f 89/5/2 90/6/2 92/7/2 91/8/2
f 91/8/3 92/7/3 96/9/3 95/10/3
f 95/10/4 96/9/4 94/11/4 93/12/4
f 93/12/5 94/11/5 90/13/5 89/14/5
f 91/15/6 95/10/6 93/12/6 89/16/6
f 96/9/1 92/17/1 90/18/1 94/11/1
f 97/5/2 98/6/2 100/7/2 99/8/2
f 99/8/3 100/7/3 104/9/3 103/10/3
f 103/10/4 104/9/4 102/11/4 101/12/4
f 101/12/5 102/11/5 98/13/5 97/14/5
f 99/15/6 103/10/6 101/12/6 97/16/6
f 104/9/1 100/17/1 98/18/1 102/11/1
f 105/5/2 106/6/2 108/7/2 107/8/2
f 107/8/3 108/7/3 112/9/3 111/10/3
f 111/10/4 112/9/4 110/11/4 109/12/4
f 109/12/5 110/11/5 106/13/5 105/14/5
f 107/15/6 111/10/6 109/12/6 105/16/6
f 112/9/1 108/17/1 106/18/1 110/11/1
f 113/5/2 114/6/2 116/7/2 115/8/2
f 115/8/3 116/7/3 120/9/3 119/10/3
f 119/10/4 120/9/4 118/11/4 117/12/4
f 117/12/5 118/11/5 114/13/5 113/14/5
f 115/15/6 119/10/6 117/12/6 113/16/6
f 120/9/1 116/17/1 114/18/1 118/11/1
f 121/5/2 122/6/2 124/7/2 123/8/2
f 123/8/3 124/7/3 128/9/3 127/10/3
f 127/10/4 128/9/4 126/11/4 125/12/4
f 125/12/5 126/11/5 122/13/5 121/14/5
f 123/15/6 127/10/6 125/12/6 121/16/6
f 128/9/1 124/17/1 122/18/1 126/11/1
f 129/5/2 130/6/2 132/7/2 131/8/2
f 131/8/3 132/7/3 136/9/3 135/10/3
f 135/10/4 136/9/4 134/11/4 133/12/4
f 133/12/5 134/11/5 130/13/5 129/14/5
f 131/15/6 135/10/6 133/12/6 129/16/6
f 136/9/1 132/17/1 130/18/1 134/11/1
f 137/5/2 138/6/2 140/7/2 139/8/2
f 139/8/3 140/7/3 144/9/3 143/10/3
f 143/10/4 144/9/4 142/11/4 141/12/4
f 141/12/5 142/11/5 138/13/5 137/14/5
f 139/15/6 143/10/6 141/12/6 137/16/6
f 144/9/1 140/17/1 138/18/1 142/11/1
f 145/5/2 146/6/2 148/7/2 147/8/2
f 147/8/3 148/7/3 152/9/3 151/10/3
f 151/10/4 152/9/4 150/11/4 149/12/4
f 149/12/5 150/11/5 146/13/5 145/14/5
f 147/15/6 151/10/6 149/12/6 145/16/6
f 152/9/1 148/17/1 146/18/1 150/11/1
f 153/5/2 154/6/2 156/7/2 155/8/2
f 155/8/3 156/7/3 160/9/3 159/10/3
f 159/10/4 160/9/4 158/11/4 157/12/4
f 157/12/5 158/11/5 154/13/5 153/14/5
f 155/15/6 159/10/6 157/12/6 153/16/6
f 160/9/1 156/17/1 154/18/1 158/11/1
f 161/5/2 162/6/2 164/7/2 163/8/2
f 163/8/3 164/7/3 168/9/3 167/10/3
f 167/10/4 168/9/4 166/11/4 165/12/4
f 165/12/5 166/11/5 162/13/5 161/14/5
f 163/15/6 167/10/6 165/12/6 161/16/6
f 168/9/1 164/17/1 162/18/1 166/11/1
f 169/5/2 170/6/2 172/7/2 171/8/2
f 171/8/3 172/7/3 176/9/3 175/10/3
f 175/10/4 176/9/4 174/11/4 173/12/4
f 173/12/5 174/11/5 170/13/5 169/14/5
f 171/15/6 175/10/6 173/12/6 169/16/6
f 176/9/1 172/17/1 170/18/1 174/11/1
