# Blender 4.1.1
# www.blender.org
mtllib stage03.mtl
o 立方体.001
v -5.000000 -0.300000 5.000000
v -5.000000 0.300000 5.000000
v -5.000000 -0.300000 -5.000000
v -5.000000 0.300000 -5.000000
v 5.000000 -0.300000 5.000000
v 5.000000 0.300000 5.000000
v 5.000000 -0.300000 -5.000000
v 5.000000 0.300000 -5.000000
v 3.000000 -0.300000 -5.000000
v 1.000000 -0.300000 -5.000000
v -1.000000 -0.300000 -5.000000
v -3.000000 -0.300000 -5.000000
v -3.000000 0.300000 -5.000000
v -1.000000 0.300000 -5.000000
v 1.000000 0.300000 -5.000000
v 3.000000 0.300000 -5.000000
v -3.000000 -0.300000 5.000000
v -1.000000 -0.300000 5.000000
v 1.000000 -0.300000 5.000000
v 3.000000 -0.300000 5.000000
v 3.000000 0.300000 5.000000
v 1.000000 0.300000 5.000000
v -1.000000 0.300000 5.000000
v -3.000000 0.300000 5.000000
v -5.000000 -0.300000 -3.000000
v -5.000000 -0.300000 -1.000000
v -5.000000 -0.300000 1.000000
v -5.000000 -0.300000 3.000000
v -5.000000 0.300000 3.000000
v -5.000000 0.300000 1.000000
v -5.000000 0.300000 -1.000000
v -5.000000 0.300000 -3.000000
v 5.000000 -0.300000 3.000000
v 5.000000 -0.300000 1.000000
v 5.000000 -0.300000 -1.000000
v 5.000000 -0.300000 -3.000000
v 5.000000 0.300000 -3.000000
v 5.000000 0.300000 -1.000000
v 5.000000 0.300000 1.000000
v 5.000000 0.300000 3.000000
v 3.000000 0.300000 -3.000000
v 3.000000 0.300000 -1.000000
v 3.000000 0.300000 1.000000
v 3.000000 0.300000 3.000000
v 1.000000 0.300000 -3.000000
v 1.000000 0.300000 -1.000000
v 1.000000 0.300000 1.000000
v 1.000000 0.300000 3.000000
v -1.000000 0.300000 -3.000000
v -1.000000 0.300000 -1.000000
v -1.000000 0.300000 1.000000
v -1.000000 0.300000 3.000000
v -3.000000 0.300000 -3.000000
v -3.000000 0.300000 -1.000000
v -3.000000 0.300000 1.000000
v -3.000000 0.300000 3.000000
v -3.000000 -0.300000 -3.000000
v -3.000000 -0.300000 -1.000000
v -3.000000 -0.300000 1.000000
v -3.000000 -0.300000 3.000000
v -1.000000 -0.300000 -3.000000
v -1.000000 -0.300000 -1.000000
v -1.000000 -4.300000 -3.000000
v -1.000000 -0.300000 3.000000
v 1.000000 -0.300000 -3.000000
v -3.000000 -4.300000 3.000000
v -3.000000 -4.300000 1.000000
v 1.000000 -0.300000 3.000000
v 3.000000 -0.300000 -3.000000
v -3.000000 -4.300000 -1.000000
v 3.000000 -0.300000 1.000000
v 3.000000 -0.300000 3.000000
v 5.000000 -2.300000 1.000000
v 5.000000 -2.300000 -1.000000
v 5.000000 -2.300000 -3.000000
v -3.000000 -2.300000 -1.000000
v -3.000000 -2.300000 1.000000
v -3.000000 -2.300000 3.000000
v -1.000000 -2.300000 -3.000000
v -1.000000 -2.300000 -1.000000
v -1.000000 -2.300000 3.000000
v 1.000000 -2.300000 -3.000000
v 1.000000 -2.300000 -1.000000
v 1.000000 -2.300000 1.000000
v 1.000000 -2.300000 3.000000
v 3.000000 -2.300000 -3.000000
v 3.000000 -2.300000 -1.000000
v 3.000000 -2.300000 1.000000
v 3.000000 -2.300000 3.000000
v -1.000000 -4.300000 -1.000000
v -1.000000 -4.300000 1.000000
v -1.000000 -4.300000 3.000000
v 1.000000 -4.300000 -3.000000
v 1.000000 -4.300000 -1.000000
v 1.000000 -4.300000 1.000000
v 1.000000 -4.300000 3.000000
v 3.000000 -4.300000 1.000000
v 3.000000 -4.300000 3.000000
v -3.000000 -6.300000 -1.000000
v -3.000000 -6.300000 1.000000
v -1.000000 -6.300000 -1.000000
v -1.000000 -6.300000 1.000000
v 1.000000 -6.300000 -1.000000
v 1.000000 -6.300000 1.000000
v -9.000001 1.200000 3.000000
v -9.000001 0.000000 3.000000
v -9.000001 -0.000000 -2.000000
v -9.000001 1.200000 -2.000000
v -13.000002 0.000000 3.000000
v -13.000002 1.200000 3.000000
v -13.000002 1.200000 -2.000000
v -13.000002 -0.000000 -2.000000
v -5.600000 0.900001 8.600001
v -5.600000 2.100001 8.600001
v -10.400002 0.900001 8.600001
v -10.400002 2.100001 8.600001
v -5.600000 2.100001 13.400002
v -5.600000 0.900001 13.400002
v -10.400002 0.900001 13.400002
v -10.400002 2.100001 13.400002
v -1.000000 -1.699998 21.000002
v -1.000000 0.300002 21.000002
v -1.000000 -1.699999 19.000002
v -1.000000 0.300001 19.000002
v 1.000000 -1.699998 21.000002
v 1.000000 0.300002 21.000002
v 1.000000 -1.699999 19.000002
v 1.000000 0.300001 19.000002
v 5.000000 -5.700002 5.000002
v 5.000000 5.300002 5.000001
v 5.000000 -5.700003 -5.000001
v 5.000000 5.300001 -5.000002
v 9.000001 -5.700002 5.000002
v 9.000001 5.300002 5.000001
v 9.000001 -5.700003 -5.000001
v 9.000001 5.300001 -5.000002
v 5.000000 3.300001 5.000001
v 5.000000 3.299999 -5.000002
v 9.000001 3.299999 -5.000002
v 9.000001 3.300000 5.000001
v -5.000000 0.150000 5.000000
v -5.000000 0.150000 -5.000000
v 5.000000 0.150000 -5.000000
v 5.000000 0.150000 5.000000
v 3.000000 0.150000 5.000000
v 1.000000 0.150000 5.000000
v -1.000000 0.150000 5.000000
v -3.000000 0.150000 5.000000
v -3.000000 0.150000 -5.000000
v -1.000000 0.150000 -5.000000
v 1.000000 0.150000 -5.000000
v 3.000000 0.150000 -5.000000
v 5.000000 0.150000 -3.000000
v 5.000000 0.150000 -1.000000
v 5.000000 0.150000 1.000000
v 5.000000 0.150000 3.000000
v -5.000000 0.150000 3.000000
v -5.000000 0.150000 1.000000
v -5.000000 0.150000 -1.000000
v -5.000000 0.150000 -3.000000
vn -1.0000 -0.0000 -0.0000
vn -0.0000 -0.0000 -1.0000
vn 1.0000 -0.0000 -0.0000
vn -0.0000 -0.0000 1.0000
vn -0.0000 1.0000 -0.0000
vn -0.0000 -1.0000 -0.0000
vt 0.420000 0.020000
vt 0.445000 0.000000
vt 0.445000 0.020000
vt -0.000794 1.005882
vt 0.248753 0.004029
vt 0.248753 1.005882
vt 0.080000 0.000000
vt 0.100000 0.025000
vt 0.080000 0.025000
vt 0.420000 0.220000
vt 0.445000 0.200000
vt 0.445000 0.220000
vt 0.420000 0.300000
vt 0.445000 0.280000
vt 0.445000 0.300000
vt 0.420000 0.280000
vt 0.445000 0.260000
vt 0.420000 0.260000
vt 0.445000 0.240000
vt 0.420000 0.240000
vt -1.026849 1.715276
vt -0.243973 1.088976
vt -0.243973 1.715276
vt -1.026849 1.088976
vt -0.243973 0.462676
vt -1.026849 0.462676
vt -0.243973 -0.163624
vt 0.000939 1.001475
vt 0.249619 0.003761
vt 0.249619 1.001475
vt 0.040000 0.100000
vt 0.020000 0.433333
vt 0.020000 0.100000
vt 0.060000 0.100000
vt 0.040000 0.433333
vt 0.000000 0.000000
vt 0.020000 0.025000
vt 0.000000 0.025000
vt 0.020000 0.000000
vt 0.040000 0.025000
vt 0.040000 0.000000
vt 0.060000 0.025000
vt 0.060000 0.000000
vt 0.420000 0.100000
vt 0.445000 0.080000
vt 0.445000 0.100000
vt 0.420000 0.080000
vt 0.445000 0.060000
vt 0.420000 0.060000
vt 0.445000 0.040000
vt 0.420000 0.040000
vt 0.001667 -0.001108
vt 0.999068 0.996186
vt 0.001667 0.996186
vt -0.002998 0.005018
vt 0.999987 1.000981
vt -0.002998 1.000981
vt 0.003236 0.004490
vt 1.000480 1.001784
vt 0.003236 1.001784
vt 0.999578 0.997225
vt 0.002334 0.009667
vt 0.999578 0.009667
vt -0.003255 1.001784
vt 1.001529 0.004491
vt 1.001529 1.001784
vt 0.005696 1.000000
vt 1.002941 0.002706
vt 1.002941 1.000000
vt -0.000794 1.000000
vt 1.004451 0.005167
vt 1.004451 1.000000
vt -0.001686 0.000000
vt 1.001098 0.992372
vt -0.001686 0.992372
vt 0.998347 0.990887
vt 0.009102 0.001642
vt 0.998348 0.001642
vt 0.998637 0.005598
vt 0.000775 0.995510
vt 0.000775 0.005598
vt 0.005291 0.991023
vt 0.992317 0.003996
vt 0.992317 0.991023
vt 0.003236 0.996186
vt 1.003559 0.008735
vt 1.003559 0.996186
vt 0.002334 0.995284
vt 1.001725 0.000000
vt 1.001725 0.995284
vt 0.002451 1.000000
vt 1.000010 0.000000
vt 0.002451 0.000000
vt 0.002334 0.008510
vt 0.999264 1.001333
vt 0.002334 1.001333
vt 0.004481 0.001128
vt 1.001412 0.998872
vt 0.004481 0.998872
vt 1.000000 1.000000
vt 0.000000 0.000001
vt 0.000000 1.000000
vt 1.000000 0.000001
vt 0.375000 0.500000
vt 0.125000 0.750000
vt 0.125000 0.500000
vt 0.999542 0.009629
vt 0.009909 0.997215
vt 0.009909 0.009629
vt 0.994635 -0.003310
vt 0.009895 0.997389
vt 0.009895 -0.003310
vt 0.001892 1.000000
vt 1.003029 0.000000
vt 0.001892 0.000000
vt 0.998647 0.000000
vt -0.003961 0.998078
vt -0.003961 0.000000
vt 0.080000 0.100000
vt 0.000000 0.100000
vt 0.100000 0.100000
vt 1.005888 0.799696
vt 0.804117 1.001467
vt 0.804118 0.799696
vt 0.198804 0.799696
vt -0.002967 1.001467
vt -0.002967 0.799696
vt 0.400575 0.799696
vt 0.198805 1.001467
vt 0.602346 0.799696
vt 0.400576 1.001467
vt 0.602346 1.001467
vt 0.804117 -0.007388
vt 0.602346 0.194383
vt 0.602346 -0.007388
vt 0.804118 0.194383
vt 0.602346 0.396154
vt 0.804118 0.396154
vt 0.602346 0.597925
vt 0.804118 0.597925
vt 0.400575 0.194383
vt 0.400575 -0.007388
vt 0.400575 0.396154
vt 0.400575 0.597925
vt 0.198804 0.194383
vt 0.198804 -0.007388
vt 0.198804 0.396154
vt 0.198804 0.597925
vt -0.002967 0.194383
vt -0.002967 -0.007388
vt -0.002967 0.396154
vt -0.002967 0.597925
vt 1.005888 -0.007388
vt 1.005888 0.194383
vt 1.005888 0.396154
vt 1.005888 0.597925
vt 1.000000 0.000000
vt -0.001421 1.000000
vt 1.003882 0.000000
vt -0.001421 0.000000
vt 1.001784 1.000000
vt 0.003137 0.000000
vt 1.001784 0.000000
vt 0.998961 1.000000
vt 0.998961 0.000000
vt 1.001219 0.002203
vt 0.001703 1.001719
vt 0.001703 0.002203
vt 0.738720 0.437155
vt 0.696112 0.417155
vt 0.738720 0.417155
vt 0.738720 0.357155
vt 0.696112 0.337155
vt 0.738720 0.337155
vt 0.738720 0.377155
vt 0.696112 0.357155
vt 0.738720 0.397155
vt 0.696112 0.377155
vt 0.696112 0.397155
vt 0.909153 0.417155
vt 0.866545 0.397155
vt 0.909153 0.397155
vt 0.271932 0.000000
vt 0.229324 0.333333
vt 0.229324 0.000000
vt 0.407898 0.000000
vt 0.365289 0.333333
vt 0.365289 0.000000
vt 0.866545 0.377155
vt 0.909153 0.377155
vt 0.314540 0.000000
vt 0.271932 0.333333
vt 0.637221 0.000000
vt 0.594613 0.333333
vt 0.594613 0.000000
vt 0.866545 0.357155
vt 0.909153 0.357155
vt 0.823937 0.357155
vt 0.186715 0.333333
vt 0.186715 0.000000
vt 0.645363 0.000000
vt 0.687971 0.333333
vt 0.645363 0.333333
vt 0.866545 0.337155
vt 0.909153 0.337155
vt 0.823937 0.337155
vt 0.781328 0.337155
vt 0.781328 0.357155
vt 0.909153 0.437155
vt 0.866545 0.417155
vt 0.450506 0.000000
vt 0.407898 0.333333
vt 0.322681 0.333333
vt 0.322681 0.000000
vt 0.781328 0.437155
vt 0.781328 0.417155
vt 0.738720 0.480977
vt 0.781328 0.460977
vt 0.781328 0.480977
vt 0.738720 0.460977
vt 0.781328 0.440977
vt 0.042608 0.333333
vt 0.085216 0.666667
vt 0.042608 0.666667
vt 0.637221 0.666667
vt 0.594613 0.666667
vt 0.586471 0.000000
vt 0.543863 0.333333
vt 0.543863 0.000000
vt 0.501255 0.333333
vt 0.501255 0.000000
vt 0.645363 0.666667
vt 0.135966 0.333333
vt 0.093358 0.666667
vt 0.093358 0.333333
vt 0.696112 0.480977
vt 0.696112 0.460977
vt 0.738720 0.440977
vt 0.042608 0.000000
vt 0.085216 0.333333
vt 0.957392 0.333333
vt 0.957392 0.000000
vt 0.135966 0.000000
vt 0.093358 0.000000
vt 0.000000 0.333333
vt 1.000000 0.397155
vt 0.957392 0.377155
vt 1.000000 0.377155
vt 0.832078 0.331465
vt 0.789470 0.311465
vt 0.832078 0.311465
vt 0.135966 0.666667
vt 0.093358 1.000000
vt 0.957392 0.357155
vt 1.000000 0.357155
vt 0.501255 0.666667
vt 0.957392 0.337155
vt 1.000000 0.337155
vt 0.322681 0.666667
vt 0.450506 0.333333
vt 0.407898 0.666667
vt 0.365289 0.666667
vt 0.000000 0.666667
vt 0.186715 0.666667
vt 0.458647 0.000000
vt 0.458647 0.333333
vt 1.000000 0.440977
vt 0.957392 0.420977
vt 1.000000 0.420977
vt 0.957392 0.400977
vt 1.000000 0.400977
vt 0.738720 0.000000
vt 0.696112 0.333333
vt 0.696112 0.000000
vt 0.085216 1.000000
vt 0.042608 1.000000
vt 0.781328 0.000000
vt 0.738720 0.333333
vt 0.178574 0.666667
vt 0.135966 1.000000
vt 0.949250 0.040000
vt 0.789470 0.020000
vt 0.949250 0.020000
vt 0.949250 0.060000
vt 0.789470 0.040000
vt 0.949250 0.080000
vt 0.789470 0.060000
vt 0.949250 0.100000
vt 0.789470 0.080000
vt 0.789470 0.143822
vt 0.949250 0.123822
vt 0.949250 0.143822
vt 0.789470 0.163822
vt 0.949250 0.163822
vt 0.789470 0.183822
vt 0.949250 0.183822
vt 0.789470 0.203822
vt 0.949250 0.203822
vt 0.789470 0.247643
vt 0.949250 0.227643
vt 0.949250 0.247643
vt 0.789470 0.267643
vt 0.949250 0.267643
vt 0.789470 0.287643
vt 0.949250 0.287643
vt 0.789470 0.307643
vt 0.949250 0.307643
vt 0.789470 0.227643
vt 0.949250 0.207643
vt 0.789470 0.123822
vt 0.949250 0.103822
vt 0.789470 0.000000
vt 0.949250 0.000000
vt 0.420000 0.000000
vt -0.000794 0.004029
vt 0.100000 0.000000
vt 0.420000 0.200000
vt -1.026849 -0.163624
vt 0.000939 0.003761
vt 0.060000 0.433333
vt 0.999068 -0.001108
vt 0.999987 0.005018
vt 1.000480 0.004490
vt 0.002334 0.997225
vt -0.003255 0.004491
vt 0.005696 0.002706
vt -0.000794 0.005167
vt 1.001098 0.000000
vt 0.009102 0.990887
vt 0.998637 0.995510
vt 0.005291 0.003996
vt 0.003236 0.008735
vt 0.002334 0.000000
vt 1.000010 1.000000
vt 0.999264 0.008510
vt 1.001412 0.001128
vt 0.375000 0.750000
vt 0.999542 0.997215
vt 0.994635 0.997389
vt 1.003029 1.000000
vt 0.998647 0.998078
vt 1.005888 1.001467
vt 1.003882 1.000000
vt 0.003137 1.000000
vt 1.001219 1.001719
vt 0.696112 0.437155
vt 0.314540 0.333333
vt 0.637221 0.333333
vt 0.823937 0.377155
vt 0.687971 0.000000
vt 0.866545 0.437155
vt 0.586471 0.333333
vt 0.687971 0.666667
vt 0.696112 0.440977
vt 0.085216 0.000000
vt 1.000000 0.333333
vt 0.957392 0.397155
vt 0.789470 0.331465
vt 0.543863 0.666667
vt 0.450506 0.666667
vt 0.229324 0.666667
vt 0.957392 0.440977
vt 0.781328 0.333333
vt 0.178574 1.000000
vt 0.789470 0.100000
vt 0.789470 0.207643
vt 0.789470 0.103822
s 0
usemtl マテリアル.005
f 32/1/1 142/2/1 160/3/1
f 16/4/2 143/5/2 152/6/2
f 40/7/3 144/8/3 156/9/3
f 24/10/4 141/11/4 148/12/4
f 6/13/4 145/14/4 144/15/4
f 21/16/4 146/17/4 145/14/4
f 22/18/4 147/19/4 146/17/4
f 23/20/4 148/12/4 147/19/4
f 4/21/2 149/22/2 142/23/2
f 13/24/2 150/25/2 149/22/2
f 14/26/2 151/27/2 150/25/2
f 15/28/2 152/29/2 151/30/2
f 35/31/3 75/32/3 36/33/3
f 34/34/3 74/35/3 35/31/3
f 8/36/3 153/37/3 143/38/3
f 37/39/3 154/40/3 153/37/3
f 38/41/3 155/42/3 154/40/3
f 39/43/3 156/9/3 155/42/3
f 2/44/1 157/45/1 141/46/1
f 29/47/1 158/48/1 157/45/1
f 30/49/1 159/50/1 158/48/1
f 31/51/1 160/3/1 159/50/1
f 108/52/3 106/53/3 107/54/3
f 110/55/5 108/56/5 111/57/5
f 105/58/4 109/59/4 106/60/4
f 112/61/6 106/62/6 109/63/6
f 109/64/1 111/65/1 112/66/1
f 112/67/2 108/68/2 107/69/2
f 115/70/2 114/71/2 113/72/2
f 114/73/3 118/74/3 113/75/3
f 116/76/5 117/77/5 114/78/5
f 120/79/4 118/80/4 117/81/4
f 113/82/6 119/83/6 115/84/6
f 119/85/1 116/86/1 115/87/1
f 121/88/1 124/89/1 123/90/1
f 124/91/2 127/92/2 123/93/2
f 128/94/3 125/95/3 127/96/3
f 126/97/4 121/98/4 125/99/4
f 127/100/6 121/101/6 123/102/6
f 124/102/5 126/103/5 128/100/5
f 135/104/6 129/105/6 131/106/6
f 140/107/4 129/108/4 133/109/4
f 139/110/3 133/111/3 135/112/3
f 138/113/2 135/114/2 131/115/2
f 137/116/1 131/117/1 129/118/1
f 155/42/3 33/119/3 34/34/3
f 154/40/3 34/34/3 35/31/3
f 153/37/3 35/31/3 36/33/3
f 143/38/3 36/33/3 7/120/3
f 156/9/3 5/121/3 33/119/3
f 32/1/1 4/314/1 142/2/1
f 16/4/2 8/315/2 143/5/2
f 40/7/3 6/316/3 144/8/3
f 24/10/4 2/317/4 141/11/4
f 6/13/4 21/16/4 145/14/4
f 21/16/4 22/18/4 146/17/4
f 22/18/4 23/20/4 147/19/4
f 23/20/4 24/10/4 148/12/4
f 4/21/2 13/24/2 149/22/2
f 13/24/2 14/26/2 150/25/2
f 14/26/2 15/318/2 151/27/2
f 15/28/2 16/319/2 152/29/2
f 35/31/3 74/35/3 75/32/3
f 34/34/3 73/320/3 74/35/3
f 8/36/3 37/39/3 153/37/3
f 37/39/3 38/41/3 154/40/3
f 38/41/3 39/43/3 155/42/3
f 39/43/3 40/7/3 156/9/3
f 2/44/1 29/47/1 157/45/1
f 29/47/1 30/49/1 158/48/1
f 30/49/1 31/51/1 159/50/1
f 31/51/1 32/1/1 160/3/1
f 108/52/3 105/321/3 106/53/3
f 110/55/5 105/322/5 108/56/5
f 105/58/4 110/323/4 109/59/4
f 112/61/6 107/324/6 106/62/6
f 109/64/1 110/325/1 111/65/1
f 112/67/2 111/326/2 108/68/2
f 115/70/2 116/327/2 114/71/2
f 114/73/3 117/328/3 118/74/3
f 116/76/5 120/329/5 117/77/5
f 120/79/4 119/330/4 118/80/4
f 113/82/6 118/331/6 119/83/6
f 119/85/1 120/332/1 116/86/1
f 121/88/1 122/333/1 124/89/1
f 124/91/2 128/334/2 127/92/2
f 128/94/3 126/335/3 125/95/3
f 126/97/4 122/336/4 121/98/4
f 127/100/6 125/103/6 121/101/6
f 124/102/5 122/101/5 126/103/5
f 135/104/6 133/337/6 129/105/6
f 140/107/4 137/338/4 129/108/4
f 139/110/3 140/339/3 133/111/3
f 138/113/2 139/340/2 135/114/2
f 137/116/1 138/341/1 131/117/1
f 155/42/3 156/9/3 33/119/3
f 154/40/3 155/42/3 34/34/3
f 153/37/3 154/40/3 35/31/3
f 143/38/3 153/37/3 36/33/3
f 156/9/3 144/8/3 5/121/3
usemtl マテリアル.006
f 29/122/5 24/123/5 56/124/5
f 44/125/5 6/126/5 40/127/5
f 48/128/5 21/129/5 44/125/5
f 52/130/5 22/131/5 48/128/5
f 56/124/5 23/132/5 52/130/5
f 13/133/5 49/134/5 14/135/5
f 53/136/5 50/137/5 49/134/5
f 54/138/5 51/139/5 50/137/5
f 55/140/5 52/130/5 51/139/5
f 14/135/5 45/141/5 15/142/5
f 49/134/5 46/143/5 45/141/5
f 50/137/5 47/144/5 46/143/5
f 51/139/5 48/128/5 47/144/5
f 15/142/5 41/145/5 16/146/5
f 45/141/5 42/147/5 41/145/5
f 46/143/5 43/148/5 42/147/5
f 47/144/5 44/125/5 43/148/5
f 16/146/5 37/149/5 8/150/5
f 41/145/5 38/151/5 37/149/5
f 42/147/5 39/152/5 38/151/5
f 43/148/5 40/127/5 39/152/5
f 4/153/5 53/136/5 13/133/5
f 32/154/5 54/138/5 53/136/5
f 31/155/5 55/140/5 54/138/5
f 30/156/5 56/124/5 55/140/5
f 137/36/1 132/100/1 138/157/1
f 132/158/2 139/159/2 138/160/2
f 136/161/3 140/162/3 139/163/3
f 134/164/4 137/160/4 140/165/4
f 132/166/5 134/167/5 136/168/5
f 29/122/5 2/342/5 24/123/5
f 44/125/5 21/129/5 6/126/5
f 48/128/5 22/131/5 21/129/5
f 52/130/5 23/132/5 22/131/5
f 56/124/5 24/123/5 23/132/5
f 13/133/5 53/136/5 49/134/5
f 53/136/5 54/138/5 50/137/5
f 54/138/5 55/140/5 51/139/5
f 55/140/5 56/124/5 52/130/5
f 14/135/5 49/134/5 45/141/5
f 49/134/5 50/137/5 46/143/5
f 50/137/5 51/139/5 47/144/5
f 51/139/5 52/130/5 48/128/5
f 15/142/5 45/141/5 41/145/5
f 45/141/5 46/143/5 42/147/5
f 46/143/5 47/144/5 43/148/5
f 47/144/5 48/128/5 44/125/5
f 16/146/5 41/145/5 37/149/5
f 41/145/5 42/147/5 38/151/5
f 42/147/5 43/148/5 39/152/5
f 43/148/5 44/125/5 40/127/5
f 4/153/5 32/154/5 53/136/5
f 32/154/5 31/155/5 54/138/5
f 31/155/5 30/156/5 55/140/5
f 30/156/5 29/122/5 56/124/5
f 137/36/1 130/102/1 132/100/1
f 132/158/2 136/343/2 139/159/2
f 136/161/3 134/344/3 140/162/3
f 134/164/4 130/158/4 137/160/4
f 132/166/5 130/345/5 134/167/5
usemtl マテリアル.007
f 33/169/6 20/170/6 72/171/6
f 60/172/6 1/173/6 28/174/6
f 64/175/6 17/176/6 60/172/6
f 68/177/6 18/178/6 64/175/6
f 72/171/6 19/179/6 68/177/6
f 9/180/6 65/181/6 10/182/6
f 69/183/2 82/184/2 65/185/2
f 64/186/4 85/187/4 68/188/4
f 10/182/6 61/189/6 11/190/6
f 36/191/2 86/192/2 69/183/2
f 72/193/3 88/194/3 71/195/3
f 11/190/6 57/196/6 12/197/6
f 61/189/6 58/198/6 57/196/6
f 65/185/2 79/199/2 61/200/2
f 62/201/1 79/202/1 80/203/1
f 12/197/6 25/204/6 3/205/6
f 57/196/6 26/206/6 25/204/6
f 58/198/6 27/207/6 26/206/6
f 59/208/6 28/174/6 27/207/6
f 7/209/6 69/210/6 9/180/6
f 60/211/4 81/212/4 64/186/4
f 68/188/4 89/213/4 72/214/4
f 34/215/6 72/171/6 71/216/6
f 86/217/6 83/218/6 82/219/6
f 87/220/6 84/221/6 83/218/6
f 77/222/1 70/223/1 67/224/1
f 88/194/3 98/225/3 97/226/3
f 88/227/2 95/228/2 84/229/2
f 84/229/3 94/230/3 83/231/3
f 79/202/1 90/232/1 80/203/1
f 80/233/2 70/234/2 76/235/2
f 75/236/6 87/220/6 86/217/6
f 74/237/6 88/238/6 87/220/6
f 59/239/1 76/240/1 77/222/1
f 71/157/4 73/241/4 34/242/4
f 62/243/2 76/235/2 58/244/2
f 59/239/1 78/245/1 60/36/1
f 97/246/6 96/247/6 95/248/6
f 93/249/6 90/250/6 63/251/6
f 90/252/2 99/253/2 70/234/2
f 95/248/6 92/254/6 91/255/6
f 95/228/3 103/256/3 94/230/3
f 91/255/6 66/257/6 67/258/6
f 85/187/4 98/259/4 89/213/4
f 78/260/4 92/261/4 81/212/4
f 81/212/4 96/262/4 85/187/4
f 77/222/1 66/263/1 78/245/1
f 82/184/2 63/264/2 79/199/2
f 82/265/3 94/230/3 93/266/3
f 103/267/6 102/268/6 101/269/6
f 101/269/6 100/270/6 99/271/6
f 91/272/4 104/273/4 95/274/4
f 67/224/1 99/275/1 100/276/1
f 67/277/4 102/278/4 91/272/4
f 94/279/2 101/280/2 90/252/2
f 26/281/1 160/282/1 25/283/1
f 27/284/1 159/285/1 26/281/1
f 28/286/1 158/287/1 27/284/1
f 1/288/1 157/289/1 28/286/1
f 151/290/2 9/291/2 10/292/2
f 150/293/2 10/292/2 11/294/2
f 149/295/2 11/294/2 12/296/2
f 142/297/2 12/296/2 3/298/2
f 147/299/4 17/300/4 18/301/4
f 146/302/4 18/301/4 19/303/4
f 145/304/4 19/303/4 20/305/4
f 144/306/4 20/305/4 5/307/4
f 148/308/4 1/309/4 17/300/4
f 152/310/2 7/311/2 9/291/2
f 25/283/1 142/312/1 3/313/1
f 33/169/6 5/346/6 20/170/6
f 60/172/6 17/176/6 1/173/6
f 64/175/6 18/178/6 17/176/6
f 68/177/6 19/179/6 18/178/6
f 72/171/6 20/170/6 19/179/6
f 9/180/6 69/210/6 65/181/6
f 69/183/2 86/192/2 82/184/2
f 64/186/4 81/212/4 85/187/4
f 10/182/6 65/181/6 61/189/6
f 36/191/2 75/347/2 86/192/2
f 72/193/3 89/348/3 88/194/3
f 11/190/6 61/189/6 57/196/6
f 61/189/6 62/349/6 58/198/6
f 65/185/2 82/184/2 79/199/2
f 62/201/1 61/350/1 79/202/1
f 12/197/6 57/196/6 25/204/6
f 57/196/6 58/198/6 26/206/6
f 58/198/6 59/208/6 27/207/6
f 59/208/6 60/172/6 28/174/6
f 7/209/6 36/351/6 69/210/6
f 60/211/4 78/260/4 81/212/4
f 68/188/4 85/187/4 89/213/4
f 34/215/6 33/169/6 72/171/6
f 86/217/6 87/220/6 83/218/6
f 87/220/6 88/238/6 84/221/6
f 77/222/1 76/240/1 70/223/1
f 88/194/3 89/348/3 98/225/3
f 88/227/2 97/352/2 95/228/2
f 84/229/3 95/228/3 94/230/3
f 79/202/1 63/353/1 90/232/1
f 80/233/2 90/252/2 70/234/2
f 75/236/6 74/237/6 87/220/6
f 74/237/6 73/354/6 88/238/6
f 59/239/1 58/355/1 76/240/1
f 71/157/4 88/356/4 73/241/4
f 62/243/2 80/233/2 76/235/2
f 59/239/1 77/222/1 78/245/1
f 97/246/6 98/357/6 96/247/6
f 93/249/6 94/358/6 90/250/6
f 90/252/2 101/280/2 99/253/2
f 95/248/6 96/247/6 92/254/6
f 95/228/3 104/359/3 103/256/3
f 91/255/6 92/254/6 66/257/6
f 85/187/4 96/262/4 98/259/4
f 78/260/4 66/360/4 92/261/4
f 81/212/4 92/261/4 96/262/4
f 77/222/1 67/224/1 66/263/1
f 82/184/2 93/361/2 63/264/2
f 82/265/3 83/231/3 94/230/3
f 103/267/6 104/362/6 102/268/6
f 101/269/6 102/268/6 100/270/6
f 91/272/4 102/278/4 104/273/4
f 67/224/1 70/223/1 99/275/1
f 67/277/4 100/363/4 102/278/4
f 94/279/2 103/364/2 101/280/2
f 26/281/1 159/285/1 160/282/1
f 27/284/1 158/287/1 159/285/1
f 28/286/1 157/289/1 158/287/1
f 1/288/1 141/365/1 157/289/1
f 151/290/2 152/310/2 9/291/2
f 150/293/2 151/290/2 10/292/2
f 149/295/2 150/293/2 11/294/2
f 142/297/2 149/295/2 12/296/2
f 147/299/4 148/308/4 17/300/4
f 146/302/4 147/299/4 18/301/4
f 145/304/4 146/302/4 19/303/4
f 144/306/4 145/304/4 20/305/4
f 148/308/4 141/366/4 1/309/4
f 152/310/2 143/367/2 7/311/2
f 25/283/1 160/282/1 142/312/1
